<svg width="14" height="14" viewBox="0 0 14 14" fill="none" xmlns="http://www.w3.org/2000/svg">
<path d="M0.70813 4.23805V9.41403H3.99871L7.82514 13.2405V0.411621L3.99871 4.23805H0.70813ZM7.17814 1.97355V11.6785L4.45621 8.95654L4.26664 8.76703H1.35513V4.88505H4.26664L7.17814 1.97355ZM9.48994 5.68219C9.79286 5.98577 9.96303 6.39713 9.96303 6.82596C9.96303 7.25486 9.79286 7.66622 9.48994 7.96973L9.94743 8.42723C10.3715 8.00221 10.6096 7.42632 10.6096 6.8259C10.6096 6.22555 10.3715 5.64965 9.94743 5.2246L9.48994 5.68219ZM11.7774 3.39475L11.32 3.85224C12.1074 4.64156 12.5497 5.71099 12.5497 6.82596C12.5497 7.94094 12.1074 9.01043 11.32 9.79971L11.7774 10.2572C12.6861 9.34655 13.1965 8.11252 13.1965 6.82603C13.1965 5.53953 12.6861 4.30552 11.7774 3.39481V3.39475Z" fill="#323232"/>
</svg>
