<svg width="12" height="14" viewBox="0 0 12 14" fill="none" xmlns="http://www.w3.org/2000/svg">
<path d="M10.8466 7.82597C10.8466 8.78574 10.562 9.72389 10.0288 10.5219C9.49564 11.3199 8.73781 11.9419 7.8511 12.3091C6.96445 12.6764 5.98877 12.7725 5.04745 12.5852C4.10617 12.398 3.24154 11.9359 2.5629 11.2572C1.88427 10.5786 1.42211 9.71399 1.23487 8.77267C1.04764 7.83134 1.14373 6.85567 1.51101 5.96902C1.87828 5.08233 2.50024 4.32448 3.29823 3.79128C4.09623 3.25808 5.03438 2.97348 5.99414 2.97348H7.99059L6.43132 4.53314L6.88875 4.99063L9.22914 2.64998L6.88849 0.309326L6.43106 0.766818L7.99059 2.32648H5.99414C4.90647 2.32648 3.84317 2.64902 2.93878 3.25331C2.03439 3.85761 1.3295 4.71651 0.913259 5.72142C0.497011 6.72633 0.388102 7.83212 0.600305 8.8989C0.812502 9.96567 1.33628 10.9456 2.1054 11.7147C2.87452 12.4839 3.85444 13.0076 4.92122 13.2198C5.98806 13.432 7.09378 13.3231 8.0987 12.9069C9.10363 12.4907 9.96252 11.7858 10.5668 10.8814C11.1711 9.97699 11.4936 8.91371 11.4936 7.82597H10.8466Z" fill="#323232"/>
</svg>
