<svg width="12" height="14" viewBox="0 0 12 14" fill="none" xmlns="http://www.w3.org/2000/svg">
<path d="M9.53154 3.93706C9.02203 3.42487 8.41604 3.01881 7.7486 2.74236C7.08115 2.4659 6.3655 2.32455 5.64306 2.32648H3.64661L5.20588 0.766818L4.74845 0.309326L2.40806 2.64998L4.74871 4.99063L5.20614 4.53314L3.64661 2.97348H5.64306C6.60282 2.97348 7.54098 3.25808 8.33899 3.79128C9.13693 4.32448 9.75889 5.08233 10.1262 5.96902C10.4935 6.85567 10.5896 7.83134 10.4023 8.77267C10.2151 9.71399 9.75294 10.5786 9.0743 11.2572C8.39566 11.9359 7.53101 12.398 6.58975 12.5852C5.64843 12.7725 4.67276 12.6764 3.78609 12.3091C2.89941 11.9419 2.14155 11.3199 1.60835 10.5219C1.07515 9.72389 0.790556 8.78573 0.790556 7.82597H0.143555C0.143542 8.73042 0.366583 9.62088 0.792924 10.4185C1.21926 11.2161 1.83573 11.8963 2.58773 12.3988C3.33973 12.9012 4.20404 13.2104 5.10411 13.2991C6.00415 13.3877 6.91222 13.253 7.74776 12.9069C8.58336 12.5608 9.32062 12.0139 9.89438 11.3147C10.4681 10.6156 10.8605 9.78574 11.037 8.8987C11.2134 8.01166 11.1683 7.0948 10.9057 6.22934C10.6431 5.36388 10.1711 4.57653 9.53154 3.93706Z" fill="#323232"/>
</svg>
