<svg width="174" height="26" viewBox="0 0 174 26" fill="none" xmlns="http://www.w3.org/2000/svg">
<rect x="171.795" y="10.3994" width="1.90367" height="9.21976" rx="0.951837" fill="#323232"/>
<rect x="17.5957" y="7.97314" width="1.90367" height="13.1018" rx="0.951837" fill="#323232"/>
<rect x="20.4513" y="10.3994" width="1.90367" height="9.21976" rx="0.951837" fill="#323232"/>
<rect x="6.17419" y="4.09131" width="1.90367" height="18.9248" rx="0.951837" fill="#323232"/>
<rect x="9.02991" y="6.51758" width="1.90367" height="18.9248" rx="0.951837" fill="#323232"/>
<rect x="14.7411" y="6.51758" width="1.90367" height="18.9248" rx="0.951837" fill="#323232"/>
<rect x="11.8855" y="0.209229" width="1.90367" height="22.8068" rx="0.951837" fill="#323232"/>
<rect x="3.31873" y="6.51758" width="1.90367" height="18.9248" rx="0.951837" fill="#323232"/>
<rect x="0.463135" y="0.209229" width="1.90367" height="22.8068" rx="0.951837" fill="#323232"/>
<rect x="157.516" y="3.60596" width="1.90367" height="18.9248" rx="0.951837" fill="#323232"/>
<rect x="154.662" y="7.97314" width="1.90367" height="13.1018" rx="0.951837" fill="#323232"/>
<rect x="151.805" y="11.3699" width="1.90367" height="9.21976" rx="0.951837" fill="#323232"/>
<rect x="160.371" y="6.51758" width="1.90367" height="18.9248" rx="0.951837" fill="#323232"/>
<rect x="163.228" y="4.09131" width="1.90367" height="18.9248" rx="0.951837" fill="#323232"/>
<rect x="166.083" y="6.51758" width="1.90367" height="18.9248" rx="0.951837" fill="#323232"/>
<rect x="168.938" y="0.209229" width="1.90367" height="22.8068" rx="0.951837" fill="#323232"/>
<rect x="148.95" y="7.97314" width="1.90367" height="13.1018" rx="0.951837" fill="#323232"/>
<rect x="126.105" y="7.00269" width="1.90367" height="13.1018" rx="0.951837" fill="#323232"/>
<rect x="123.251" y="10.3994" width="1.90367" height="9.21976" rx="0.951837" fill="#323232"/>
<rect x="120.395" y="10.3994" width="1.90367" height="9.21976" rx="0.951837" fill="#323232"/>
<rect x="114.684" y="2.6355" width="1.90367" height="18.9248" rx="0.951837" fill="#323232"/>
<rect x="111.828" y="7.00269" width="1.90367" height="13.1018" rx="0.951837" fill="#323232"/>
<rect x="108.973" y="10.3994" width="1.90367" height="9.21976" rx="0.951837" fill="#323232"/>
<rect x="117.538" y="5.54688" width="1.90367" height="18.9248" rx="0.951837" fill="#323232"/>
<rect x="94.6956" y="3.60596" width="1.90367" height="18.9248" rx="0.951837" fill="#323232"/>
<rect x="91.8391" y="7.97314" width="1.90367" height="13.1018" rx="0.951837" fill="#323232"/>
<rect x="88.9834" y="11.3699" width="1.90367" height="9.21976" rx="0.951837" fill="#323232"/>
<rect x="97.5503" y="6.51758" width="1.90367" height="18.9248" rx="0.951837" fill="#323232"/>
<rect x="100.406" y="4.09131" width="1.90367" height="18.9248" rx="0.951837" fill="#323232"/>
<rect x="103.262" y="6.51758" width="1.90367" height="18.9248" rx="0.951837" fill="#323232"/>
<rect x="106.117" y="0.209229" width="1.90367" height="22.8068" rx="0.951837" fill="#323232"/>
<rect x="86.1279" y="7.97314" width="1.90367" height="13.1018" rx="0.951837" fill="#323232"/>
<rect x="146.094" y="11.3699" width="1.90367" height="9.21976" rx="0.951837" fill="#323232"/>
<rect x="143.239" y="11.3699" width="1.90367" height="9.21976" rx="0.951837" fill="#323232"/>
<rect x="137.528" y="3.60596" width="1.90367" height="18.9248" rx="0.951837" fill="#323232"/>
<rect x="134.672" y="7.97314" width="1.90367" height="13.1018" rx="0.951837" fill="#323232"/>
<rect x="131.817" y="11.3699" width="1.90367" height="9.21976" rx="0.951837" fill="#323232"/>
<rect x="140.383" y="6.51758" width="1.90367" height="18.9248" rx="0.951837" fill="#323232"/>
<rect x="128.962" y="1.17969" width="1.90367" height="22.8068" rx="0.951837" fill="#323232"/>
<rect x="63.2842" y="7.00269" width="1.90367" height="13.1018" rx="0.951837" fill="#323232"/>
<rect x="60.4294" y="10.3994" width="1.90367" height="9.21976" rx="0.951837" fill="#323232"/>
<rect x="57.574" y="10.3994" width="1.90367" height="9.21976" rx="0.951837" fill="#323232"/>
<rect x="51.8627" y="2.6355" width="1.90367" height="18.9248" rx="0.951837" fill="#323232"/>
<rect x="49.0072" y="7.00269" width="1.90367" height="13.1018" rx="0.951837" fill="#323232"/>
<rect x="46.1506" y="10.3994" width="1.90367" height="9.21976" rx="0.951837" fill="#323232"/>
<rect x="54.7184" y="5.54688" width="1.90367" height="18.9248" rx="0.951837" fill="#323232"/>
<rect x="31.8745" y="3.60596" width="1.90367" height="18.9248" rx="0.951837" fill="#323232"/>
<rect x="29.0181" y="7.97314" width="1.90367" height="13.1018" rx="0.951837" fill="#323232"/>
<rect x="26.1625" y="11.3699" width="1.90367" height="9.21976" rx="0.951837" fill="#323232"/>
<rect x="34.7302" y="6.51758" width="1.90367" height="18.9248" rx="0.951837" fill="#323232"/>
<rect x="37.5848" y="4.09131" width="1.90367" height="18.9248" rx="0.951837" fill="#323232"/>
<rect x="40.4403" y="6.51758" width="1.90367" height="18.9248" rx="0.951837" fill="#323232"/>
<rect x="43.296" y="0.209229" width="1.90367" height="22.8068" rx="0.951837" fill="#323232"/>
<rect x="23.3079" y="7.97314" width="1.90367" height="13.1018" rx="0.951837" fill="#323232"/>
<rect x="83.2733" y="11.3699" width="1.90367" height="9.21976" rx="0.951837" fill="#323232"/>
<rect x="80.4176" y="11.3699" width="1.90367" height="9.21976" rx="0.951837" fill="#323232"/>
<rect x="74.7064" y="3.60596" width="1.90367" height="18.9248" rx="0.951837" fill="#323232"/>
<rect x="71.851" y="7.97314" width="1.90367" height="13.1018" rx="0.951837" fill="#323232"/>
<rect x="68.9954" y="11.3699" width="1.90367" height="9.21976" rx="0.951837" fill="#323232"/>
<rect x="77.5621" y="6.51758" width="1.90367" height="18.9248" rx="0.951837" fill="#323232"/>
<rect x="66.1388" y="1.17969" width="1.90367" height="22.8068" rx="0.951837" fill="#323232"/>
</svg>
