<svg xmlns="http://www.w3.org/2000/svg" viewBox="0 0 750 500"><g id="freepik--background-simple--inject-9"><path d="M704.18,191.6c-7.88-28.38-60.41,2.49-60.41,2.49l13.75-24.94a55.07,55.07,0,0,0,4.35-7.89c6.91-15.44,6.82-32,0-46.34C660,106.19,654.25,93.71,638.52,80,608.75,54.15,508.94,36.45,480,40.38s26.27,16.09,26.27,16.09l-4.37,0c-84.15-8.92-168.82-10.07-252.83-8.33-21.07.43-42.2,1.13-62.83,4.68-5.93,1-12.31,2.59-15.85,7.38C154.75,81.43,218.9,83.5,229,83.09c-44.07,5.73-93,7.49-134,24.52-5.71,2.37-11.38,5.19-15.69,9.58s-7.11,10.64-6.14,16.91C76,152.29,101,157.69,115.24,161.73c0,0-81.72,54.34-72.09,81.92a96.66,96.66,0,0,0,20.91,35.22A135.83,135.83,0,0,0,48,303.73c-2.61,5.34-6,12.65-3.11,18.8,14.88,31.32,240.61,138.86,421.49,108.16,48.05-8.15,95.91-21.63,138-45.47,41.92-23.73,84.64-62.93,95.2-112.35.35-1.63.6-3.21.78-4.75C707,245.35,710.78,215.34,704.18,191.6Z" style="fill:#92E3A9"></path><path d="M704.18,191.6c-7.88-28.38-60.41,2.49-60.41,2.49l13.75-24.94a55.07,55.07,0,0,0,4.35-7.89c6.91-15.44,6.82-32,0-46.34C660,106.19,654.25,93.71,638.52,80,608.75,54.15,508.94,36.45,480,40.38s26.27,16.09,26.27,16.09l-4.37,0c-84.15-8.92-168.82-10.07-252.83-8.33-21.07.43-42.2,1.13-62.83,4.68-5.93,1-12.31,2.59-15.85,7.38C154.75,81.43,218.9,83.5,229,83.09c-44.07,5.73-93,7.49-134,24.52-5.71,2.37-11.38,5.19-15.69,9.58s-6,10.56-6.14,16.91c-.4,16.77,26.56,23,42.11,27.63,0,0-81.72,54.34-72.09,81.92a96.66,96.66,0,0,0,20.91,35.22A135.83,135.83,0,0,0,48,303.73c-2.61,5.34-6,12.65-3.11,18.8,14.88,31.32,240.61,138.86,421.49,108.16,48.05-8.15,95.91-21.63,138-45.47,41.92-23.73,84.64-62.93,95.2-112.35.35-1.63.6-3.21.78-4.75C707,245.35,710.78,215.34,704.18,191.6Z" style="fill:#fff;opacity:0.8"></path></g><g id="freepik--Birds--inject-9"><path d="M575.46,161.92l-.49-.45c-.06-.05-6-5.42-10.79-4.47s-5.71,3.64-5.75,3.76l-.95-.32c0-.14,1.18-3.35,6.5-4.42,4.51-.9,9.6,3,11.18,4.29,1-1.91,4.56-7.91,8.25-8.37,4.25-.53,8.85,3,9,3.16l-.61.79c-.05,0-4.49-3.44-8.31-3s-7.74,8.32-7.78,8.4Z" style="fill:#263238"></path><path d="M562.19,181.31l-.49-.45c-.06-.05-6-5.43-10.79-4.47s-5.7,3.64-5.74,3.75l-.95-.32c0-.13,1.17-3.34,6.5-4.41,4.5-.9,9.59,3,11.17,4.29,1-1.91,4.56-7.92,8.25-8.38,4.26-.52,8.85,3,9,3.17l-.61.79s-4.48-3.45-8.3-3-7.74,8.32-7.78,8.4Z" style="fill:#263238"></path><path d="M606.52,181.31l-.49-.45s-4.51-4.09-8.11-3.37-4.25,2.69-4.28,2.78l-.95-.32c0-.11.92-2.62,5-3.44,3.36-.67,7.16,2.1,8.49,3.2.87-1.59,3.52-6,6.3-6.32,3.28-.4,6.82,2.32,7,2.44l-.61.79s-3.36-2.6-6.24-2.23c-2.32.29-5,4.66-5.82,6.33Z" style="fill:#263238"></path><path d="M658.67,201.72l-.49-.45s-2.91-2.62-5.17-2.17-2.66,1.66-2.68,1.71l-1-.32c0-.07.64-1.81,3.44-2.37,2.15-.43,4.54,1.2,5.55,2,.67-1.2,2.34-3.82,4.16-4,2.2-.29,4.6,1.55,4.7,1.63l-.61.79s-2.18-1.66-4-1.43c-1.45.18-3.15,3-3.69,4.06Z" style="fill:#263238"></path></g><g id="freepik--Clouds--inject-9"><path d="M412.17,178.57H212.43l.54-.78c.22-.32,5.39-7.67,11.9-7.08,1.07.1,2.09.21,3,.32,4.61.51,7.94.88,9.67-1.28a6.31,6.31,0,0,0,1-3.34c.29-2.33.61-5,4.91-6.54,2.55-.93,5.2-.22,7.76.47,2.74.74,5.33,1.44,7.61.14s2.69-3.91,3.11-6.67a14,14,0,0,1,1.61-5.45c2.75-4.27,8.75-6.55,13.05-6.55h.08c2.9,0,5.5,1.35,8,2.62,2.86,1.46,5.57,2.84,8.58,2.32a6,6,0,0,0,4.16-3.69,35,35,0,0,0,2.05-7.16c.88-4.21,1.71-8.19,5.72-11.88a30.32,30.32,0,0,1,16.42-7.29c24.56-3.48,51.69,14.79,56.94,38.35h0c0,.19,1.12,4.76,5.23,4.76a15.53,15.53,0,0,0,4.18-1c5.08-1.68,12.75-4.23,18.55,4.7,7.39,11.37,5.92,14.51,5.73,14.83Zm-197.77-1H411.52c.15-.89.15-4.42-5.77-13.53-5.38-8.27-12.33-6-17.4-4.29a16.21,16.21,0,0,1-4.49,1.09c-4.92,0-6.19-5.48-6.21-5.54h0c-5.14-23.09-31.74-41-55.82-37.58a29.35,29.35,0,0,0-15.89,7c-3.76,3.47-4.56,7.29-5.41,11.34a35.83,35.83,0,0,1-2.11,7.36,6.89,6.89,0,0,1-4.91,4.28c-3.34.57-6.32-1-9.21-2.42-2.4-1.22-4.89-2.49-7.55-2.51h-.08c-4.09,0-9.74,2.27-12.21,6.09A13.23,13.23,0,0,0,263,154c-.44,2.87-.9,5.84-3.61,7.38s-5.55.73-8.36,0c-2.41-.65-4.91-1.32-7.16-.5-3.72,1.35-4,3.47-4.25,5.72a7.25,7.25,0,0,1-1.25,3.85c-2.07,2.59-5.82,2.17-10.56,1.64-1-.11-2-.22-3-.31C220.05,171.27,215.9,175.72,214.4,177.57Z" style="fill:#263238"></path><path d="M447.25,126.83H366.37l.54-.79c.09-.13,2.26-3.22,5-3l1.23.13c1.93.22,3.05.3,3.61-.4a2.2,2.2,0,0,0,.35-1.19,3,3,0,0,1,2.17-2.87,5.37,5.37,0,0,1,3.29.18,3.77,3.77,0,0,0,2.83.09c.79-.46.93-1.39,1.1-2.46a5.7,5.7,0,0,1,.69-2.31,7,7,0,0,1,5.48-2.76h0a7.49,7.49,0,0,1,3.34,1.08,5.33,5.33,0,0,0,3.26.9,2.13,2.13,0,0,0,1.45-1.3,14.3,14.3,0,0,0,.8-2.82,8.19,8.19,0,0,1,2.39-4.92,12.47,12.47,0,0,1,6.75-3c10-1.42,21,6,23.17,15.62h0c0,.07.41,1.67,1.81,1.67a6.14,6.14,0,0,0,1.58-.4c2.13-.7,5.33-1.77,7.79,2,2.93,4.51,2.5,5.94,2.3,6.27Zm-78.86-1h78.15c0-.53-.33-2-2.29-5s-4.58-2.28-6.63-1.6a6.68,6.68,0,0,1-1.9.45,3,3,0,0,1-2.79-2.47c-2-9.11-12.55-16.18-22.05-14.83a11.54,11.54,0,0,0-6.22,2.75,7.14,7.14,0,0,0-2.08,4.39,15.17,15.17,0,0,1-.86,3,3.08,3.08,0,0,1-2.2,1.89,6.12,6.12,0,0,1-3.88-1,6.83,6.83,0,0,0-2.9-1,5.89,5.89,0,0,0-4.67,2.3,5,5,0,0,0-.54,1.92c-.18,1.16-.39,2.48-1.6,3.17s-2.39.34-3.58,0a4.61,4.61,0,0,0-2.69-.21,2,2,0,0,0-1.51,2,3.09,3.09,0,0,1-.57,1.69c-.93,1.17-2.51,1-4.5.77l-1.21-.12C370.44,123.93,369.13,125,368.39,125.83Z" style="fill:#263238"></path><path d="M617.15,243.28H536.27l.55-.78c.09-.13,2.26-3.23,5-3l1.23.13c1.93.21,3,.3,3.61-.4a2.29,2.29,0,0,0,.36-1.19,3,3,0,0,1,2.16-2.87,5.29,5.29,0,0,1,3.29.18,3.72,3.72,0,0,0,2.83.08c.79-.45.93-1.38,1.1-2.46a5.81,5.81,0,0,1,.69-2.3,7,7,0,0,1,5.52-2.76A7.57,7.57,0,0,1,566,229a5.38,5.38,0,0,0,3.26.9,2.12,2.12,0,0,0,1.44-1.3,13.82,13.82,0,0,0,.8-2.82,8.19,8.19,0,0,1,2.39-4.92,12.4,12.4,0,0,1,6.75-3c10-1.42,21,6,23.17,15.61,0,.08.41,1.68,1.81,1.68a6.48,6.48,0,0,0,1.58-.4c2.13-.71,5.34-1.77,7.79,2,2.93,4.5,2.5,5.94,2.31,6.27Zm-78.86-1h78.15c0-.52-.33-1.95-2.29-5s-4.58-2.28-6.63-1.6a6.68,6.68,0,0,1-1.9.45,3,3,0,0,1-2.78-2.46h0c-2-9.12-12.54-16.2-22.06-14.84a11.46,11.46,0,0,0-6.22,2.74,7.24,7.24,0,0,0-2.08,4.39,15,15,0,0,1-.86,3,3.08,3.08,0,0,1-2.19,1.9,6.27,6.27,0,0,1-3.89-1,6.53,6.53,0,0,0-2.9-1h0a6,6,0,0,0-4.64,2.3,5,5,0,0,0-.54,1.92c-.18,1.16-.39,2.48-1.59,3.17s-2.4.34-3.59,0a4.52,4.52,0,0,0-2.69-.21,2,2,0,0,0-1.51,2.05,3.21,3.21,0,0,1-.56,1.69c-.94,1.17-2.52,1-4.51.77-.38,0-.79-.09-1.21-.12C540.34,240.39,539,241.49,538.29,242.28Z" style="fill:#263238"></path><path d="M496.6,237.76H373.38l.55-.78c.13-.2,3.36-4.81,7.48-4.43l1.88.19c2.77.31,4.78.54,5.77-.71a3.78,3.78,0,0,0,.6-2,4.26,4.26,0,0,1,3.14-4.17c1.62-.59,3.28-.15,4.88.28s3.2.87,4.53.1,1.57-2.31,1.82-3.95a8.78,8.78,0,0,1,1-3.43c1.72-2.68,5.49-4.11,8.18-4.11h0a11.5,11.5,0,0,1,5,1.63c1.74.88,3.37,1.71,5.16,1.41a3.5,3.5,0,0,0,2.41-2.16,21.85,21.85,0,0,0,1.25-4.36c.55-2.62,1.06-5.09,3.57-7.4a18.84,18.84,0,0,1,10.2-4.53c15.17-2.15,31.95,9.14,35.2,23.71h0c.06.28.72,2.78,3,2.78a9.38,9.38,0,0,0,2.51-.63c3.18-1.05,8-2.65,11.62,3,4.52,6.94,3.73,9,3.53,9.32Zm-121.23-1H495.93c0-.67-.2-2.87-3.55-8-3.22-5-7.24-3.63-10.46-2.56a10.2,10.2,0,0,1-2.83.68c-2.49,0-3.69-2.23-4-3.55h0c-3.14-14.09-19.38-25-34.08-22.94a17.78,17.78,0,0,0-9.66,4.28c-2.27,2.08-2.74,4.3-3.27,6.86a22.45,22.45,0,0,1-1.31,4.56,4.42,4.42,0,0,1-3.16,2.74c-2.12.36-4-.58-5.78-1.5a10.54,10.54,0,0,0-4.56-1.52c-2.47,0-5.89,1.34-7.38,3.65a7.81,7.81,0,0,0-.87,3c-.28,1.81-.57,3.68-2.31,4.67s-3.52.48-5.29,0c-1.52-.41-2.95-.8-4.28-.31-2.18.79-2.32,2-2.49,3.35a4.54,4.54,0,0,1-.81,2.47c-1.34,1.67-3.69,1.41-6.66,1.08l-1.86-.2C378.74,233.3,376.44,235.53,375.37,236.76Z" style="fill:#263238"></path></g><g id="freepik--Mountains--inject-9"><path d="M504.27,390.9s-7.29-7.55-5.25-7.33,5.88,5.88,5.88,5.88.05-12.45,1.87-9.73-.41,9.78-.41,9.78,5.2-8.11,5.19-6.79c0,4.1-4,7.31-4,7.31s8.33-6.17,7-3.67-6.69,4.87-6.69,4.87,9.6-1.94,6.19-.57-6.65,2.3-6.65,2.3h-2.66s-9.06-4.55-5.65-3.87A16.85,16.85,0,0,1,504.27,390.9Z" style="fill:#263238"></path><path d="M600.56,367.26s-5.68-5.88-4.08-5.7,4.57,4.57,4.57,4.57,0-9.69,1.46-7.57-.33,7.61-.33,7.61,4.05-6.31,4-5.28c0,3.19-3.12,5.69-3.12,5.69s6.48-4.81,5.42-2.86-5.2,3.79-5.2,3.79,7.47-1.51,4.81-.45-5.18,1.79-5.18,1.79h-2.06s-7.06-3.54-4.4-3A13.31,13.31,0,0,1,600.56,367.26Z" style="fill:#263238"></path><path d="M690,346.17s-5.67-5.88-4.08-5.7,4.57,4.57,4.57,4.57,0-9.69,1.46-7.57-.32,7.61-.32,7.61,4-6.31,4-5.28c0,3.19-3.12,5.69-3.12,5.69s6.48-4.8,5.42-2.86-5.21,3.79-5.21,3.79,7.47-1.51,4.82-.45-5.18,1.79-5.18,1.79h-2.07s-7-3.54-4.4-3A13.17,13.17,0,0,1,690,346.17Z" style="fill:#263238"></path><path d="M576,394.34s-6.78-7-4.87-6.81,5.46,5.46,5.46,5.46,0-11.57,1.74-9S578,393,578,393s4.84-7.54,4.83-6.31c0,3.81-3.73,6.79-3.73,6.79s7.74-5.73,6.47-3.41-6.21,4.53-6.21,4.53,8.92-1.8,5.75-.53-6.19,2.13-6.19,2.13h-2.46s-8.43-4.22-5.26-3.59A15.93,15.93,0,0,1,576,394.34Z" style="fill:#92E3A9"></path><polygon points="441.52 364.21 381.87 297.33 368.68 307.88 302.82 208.73 245.56 221.49 228.4 189.44 211.75 188.56 180.4 126.72 133.52 169.5 110.81 161.39 28.22 245.59 27.51 244.89 110.54 160.23 133.29 168.36 180.7 125.1 212.38 187.59 229.01 188.47 246.08 220.35 303.28 207.61 303.47 207.89 368.91 306.42 381.98 295.96 442.27 363.54 441.52 364.21" style="fill:#263238"></polygon><rect x="449.49" y="368.24" width="1" height="9.45" transform="translate(-134.08 394.16) rotate(-41.73)" style="fill:#263238"></rect><rect x="210.04" y="229.31" width="5.14" height="1" transform="translate(-52.75 63.68) rotate(-15.18)" style="fill:#263238"></rect><rect x="220.22" y="223.74" width="25.93" height="1" transform="translate(-50.57 68.87) rotate(-15.18)" style="fill:#263238"></rect><polygon points="151.68 192.35 150.85 191.79 164.76 171.26 163.82 164.2 163.88 164.06 179.97 131.41 180.87 131.85 164.85 164.37 165.8 171.5 151.68 192.35" style="fill:#263238"></polygon><rect x="144.03" y="197.63" width="6.27" height="1" transform="translate(-99.4 208.94) rotate(-55.91)" style="fill:#263238"></rect><rect x="93.14" y="227.87" width="38.3" height="1" transform="translate(-138.14 183.13) rotate(-53.58)" style="fill:#263238"></rect><polygon points="126.15 210.42 125.34 209.83 128.35 205.75 129.74 187.69 117.08 177.37 111.35 164.49 112.26 164.08 117.89 176.75 130.78 187.25 129.33 206.11 126.15 210.42" style="fill:#263238"></polygon><polygon points="216.75 201.04 212.17 193.41 213.03 192.89 216.97 199.46 228.36 188.59 229.05 189.31 216.75 201.04" style="fill:#263238"></polygon><polygon points="447.72 361 447.07 360.24 464.51 345.29 498.93 352.67 552.36 277.87 552.71 277.99 586.86 289.38 614.87 249.84 615.28 250.12 707.3 315.03 706.72 315.85 615.11 251.23 587.25 290.56 552.74 279.06 499.37 353.79 464.78 346.38 447.72 361" style="fill:#263238"></polygon><polygon points="604.4 299.32 590.95 293.44 591.35 292.52 603.7 297.92 614.5 250.42 615.48 250.64 604.4 299.32" style="fill:#263238"></polygon><polygon points="526.17 360.47 507.2 357.18 507.37 356.19 525.5 359.34 552.37 281.13 553.32 281.45 526.17 360.47" style="fill:#263238"></polygon></g><g id="freepik--Number--inject-9"><path d="M265.84,391.65V352H214.19v-25.4l44.3-105h37.79V327.2h16.37V352H296.28v39.68Zm-26-64.45h26V255Z" style="fill:#263238"></path><path d="M373.53,391.74q-15.33,0-25.4-6.3A39.14,39.14,0,0,1,333,368.12q-5-11-5-25.5V266.41q0-14.9,4.82-26.13a37.69,37.69,0,0,1,14.91-17.53q10.08-6.3,25.82-6.3,15.54,0,25.51,6.3a38,38,0,0,1,14.8,17.53q4.82,11.22,4.82,26.13v76.21q0,14.47-5,25.5a39.14,39.14,0,0,1-15.12,17.32Q388.43,391.74,373.53,391.74Zm0-28.55q5.67,0,8.19-3.57a20.6,20.6,0,0,0,3.36-8.5,55.72,55.72,0,0,0,.84-9.13V267a67,67,0,0,0-.74-9.66,20.4,20.4,0,0,0-3.25-8.71q-2.52-3.66-8.4-3.67t-8.5,3.67a19.64,19.64,0,0,0-3.36,8.71,67,67,0,0,0-.74,9.66V342a54.64,54.64,0,0,0,.84,9.13,19,19,0,0,0,3.57,8.5Q368.07,363.19,373.53,363.19Z" style="fill:#263238"></path><path d="M487.94,391.65V352H436.3v-25.4l44.29-105h37.79V327.2h16.37V352H518.38v39.68Zm-26-64.45h26V255Z" style="fill:#263238"></path></g></svg>