<svg width="86" height="25" viewBox="0 0 86 25" fill="none" xmlns="http://www.w3.org/2000/svg">
<g clip-path="url(#clip0_968_2246)">
<path fill-rule="evenodd" clip-rule="evenodd" d="M30.7246 2.87514H29.084V3.8453H30.679V4.44588H29.084V5.83183H30.7246V6.43241H28.4688V2.25146H30.7246V2.87514Z" fill="#9E9E9E"/>
<path fill-rule="evenodd" clip-rule="evenodd" d="M32.4121 5.83183H32.7995C33.4831 5.83183 33.6198 5.48534 33.6198 5.20815C33.6198 4.90787 33.4831 4.58448 32.8223 4.58448H32.4121V5.83183ZM32.4121 4.0532H32.6172C32.7539 4.0532 33.278 4.0532 33.278 3.42952C33.278 2.92134 32.8678 2.87514 32.6172 2.87514H32.4121V4.0532ZM32.4121 2.25146C32.9362 2.25146 33.1641 2.32076 33.3919 2.48246C33.5742 2.59795 33.8704 2.87514 33.8704 3.42952C33.8704 3.63741 33.8249 3.9377 33.5286 4.19179C33.9844 4.33039 34.235 4.72307 34.235 5.16196C34.235 5.34675 34.2122 5.80873 33.8249 6.13212C33.4831 6.40931 33.1413 6.43241 32.7311 6.43241H31.7969V2.25146H32.4121Z" fill="#9E9E9E"/>
<path fill-rule="evenodd" clip-rule="evenodd" d="M35.6484 4.14559H35.9447C36.4687 4.14559 36.7422 3.8915 36.7422 3.49882C36.7422 3.26783 36.651 2.85204 35.9219 2.85204H35.6484V4.14559ZM35.9219 2.25146C36.1953 2.25146 36.5371 2.29766 36.8333 2.48246C37.1751 2.71345 37.3346 3.12923 37.3346 3.49882C37.3346 3.72981 37.289 4.12249 36.9473 4.39968C36.6055 4.69997 36.2409 4.72307 35.9447 4.72307H35.6484V6.43241H35.0332V2.25146H35.9219Z" fill="#9E9E9E"/>
<path fill-rule="evenodd" clip-rule="evenodd" d="M41.5501 4.35296C41.5501 3.42899 40.9349 2.75912 40.0462 2.75912C39.1575 2.75912 38.5423 3.42899 38.5423 4.35296C38.5423 5.27692 39.1575 5.9237 40.0462 5.9237C40.9349 5.9237 41.5501 5.27692 41.5501 4.35296ZM42.1881 4.35296C42.1881 5.57721 41.2767 6.50118 40.0462 6.50118C38.8157 6.50118 37.9043 5.57721 37.9043 4.35296C37.9043 3.12871 38.8157 2.18164 40.0462 2.18164C41.2767 2.18164 42.1881 3.12871 42.1881 4.35296Z" fill="#9E9E9E"/>
<path fill-rule="evenodd" clip-rule="evenodd" d="M45.9935 2.25146V6.43241H45.3555V2.87514H43.6009V6.43241H42.9629V2.25146H45.9935Z" fill="#9E9E9E"/>
<path fill-rule="evenodd" clip-rule="evenodd" d="M49.4805 2.87514H47.8398V3.8453H49.4349V4.44588H47.8398V5.83183H49.4805V6.43241H47.2246V2.25146H49.4805V2.87514Z" fill="#9E9E9E"/>
<path fill-rule="evenodd" clip-rule="evenodd" d="M53.3079 3.6139L50.5508 6.61679V2.25105H51.166V5.06914L53.9459 2.08936V6.43199H53.3079V3.6139Z" fill="#9E9E9E"/>
<path fill-rule="evenodd" clip-rule="evenodd" d="M58.207 3.2211C57.7513 2.80532 57.3411 2.75912 57.1133 2.75912C56.2018 2.75912 55.6094 3.42899 55.6094 4.35296C55.6094 5.23073 56.2474 5.9237 57.1133 5.9237C57.6146 5.9237 57.9791 5.66961 58.207 5.43862V6.20089C57.8196 6.45498 57.3639 6.50118 57.0905 6.50118C56.3385 6.50118 55.8828 6.15469 55.6322 5.9468C55.1536 5.48482 54.9941 4.95354 54.9941 4.35296C54.9941 3.59069 55.2904 3.05941 55.6322 2.73602C56.0651 2.32024 56.5436 2.18164 57.1133 2.18164C57.5006 2.18164 57.8652 2.25094 58.207 2.48193V3.2211Z" fill="#9E9E9E"/>
<path fill-rule="evenodd" clip-rule="evenodd" d="M59.8724 3.9146L61.4674 2.25146H62.2877L60.4421 4.14559L62.3105 6.43241H61.4674L59.9863 4.58448L59.8724 4.69997V6.43241H59.2344V2.25146H59.8724V3.9146Z" fill="#9E9E9E"/>
<path fill-rule="evenodd" clip-rule="evenodd" d="M65.8646 3.6139L63.1074 6.61679V2.25105H63.7227V5.06914L66.5026 2.08936V6.43199H65.8646V3.6139Z" fill="#9E9E9E"/>
<path fill-rule="evenodd" clip-rule="evenodd" d="M70.3763 3.6139L67.6191 6.61679V2.25105H68.2344V5.06914L70.9915 2.08936V6.43199H70.3763V3.6139Z" fill="#9E9E9E"/>
<path fill-rule="evenodd" clip-rule="evenodd" d="M28.7656 10.9595L29.8366 13.1077L30.7936 10.9595H31.4316L29.5859 15.1173H28.9251L29.4948 13.87L28.0137 10.9595H28.7656Z" fill="#9E9E9E"/>
<path fill-rule="evenodd" clip-rule="evenodd" d="M32.5931 12.5764H34.3704V10.9595H34.9857V15.1173H34.3704V13.177H32.5931V15.1173H31.9551V10.9595H32.5931V12.5764Z" fill="#9E9E9E"/>
<path fill-rule="evenodd" clip-rule="evenodd" d="M38.9967 12.299L36.2168 15.3018V10.9592H36.8548V13.7773L39.612 10.7744V15.1171H38.9967V12.299Z" fill="#9E9E9E"/>
<path fill-rule="evenodd" clip-rule="evenodd" d="M41.3437 14.5167H41.7311C42.4375 14.5167 42.5514 14.1472 42.5514 13.8931C42.5514 13.5928 42.4147 13.2694 41.7539 13.2694H41.3437V14.5167ZM41.3437 12.7381H41.5488C41.7083 12.7381 42.2096 12.7381 42.2096 12.1375C42.2096 11.6062 41.8223 11.537 41.5716 11.537H41.3437V12.7381ZM41.3437 10.9595C41.8678 10.9595 42.1185 11.0057 42.3463 11.1674C42.5286 11.306 42.8021 11.5601 42.8021 12.1144C42.8021 12.3223 42.7565 12.6457 42.4603 12.8767C42.9388 13.0153 43.1667 13.408 43.1667 13.8238C43.1667 14.0317 43.1667 14.4936 42.7565 14.817C42.4147 15.0942 42.0957 15.1173 41.6628 15.1173H40.7285V10.9595H41.3437Z" fill="#9E9E9E"/>
<path fill-rule="evenodd" clip-rule="evenodd" d="M46.3568 11.537H44.7161V12.5302H46.3112V13.1308H44.7161V14.5167H46.3568V15.1173H44.0781V10.9595H46.3568V11.537Z" fill="#9E9E9E"/>
<path fill-rule="evenodd" clip-rule="evenodd" d="M48.0443 12.8305H48.3177C48.8646 12.8305 49.1152 12.5533 49.1152 12.1837C49.1152 11.9527 49.0241 11.537 48.3177 11.537H48.0443V12.8305ZM48.3177 10.9595C48.5684 10.9595 48.9329 10.9595 49.2292 11.1674C49.571 11.3984 49.7305 11.8141 49.7305 12.1837C49.7305 12.4378 49.6621 12.8074 49.3203 13.1077C49.0013 13.3849 48.6367 13.408 48.3177 13.408H48.0443V15.1173H47.4062V10.9595H48.3177Z" fill="#9E9E9E"/>
<path fill-rule="evenodd" clip-rule="evenodd" d="M53.5364 11.9297C53.0807 11.514 52.6706 11.4678 52.4199 11.4678C51.5312 11.4678 50.9388 12.1376 50.9388 13.0385C50.9388 13.9163 51.554 14.6092 52.4199 14.6092C52.9212 14.6092 53.3086 14.3552 53.5364 14.1242V14.8864C53.1263 15.1405 52.6933 15.1867 52.4199 15.1867C51.668 15.1867 51.1894 14.8402 50.9616 14.6092C50.4831 14.1704 50.3008 13.6391 50.3008 13.0385C50.3008 12.2762 50.6198 11.745 50.9616 11.4216C51.3945 11.0058 51.873 10.8672 52.4427 10.8672C52.8073 10.8672 53.1719 10.9365 53.5364 11.1675V11.9297Z" fill="#9E9E9E"/>
<path fill-rule="evenodd" clip-rule="evenodd" d="M57.0905 12.299L54.3105 15.3018V10.9592H54.9486V13.7773L57.7057 10.7744V15.1171H57.0905V12.299Z" fill="#9E9E9E"/>
<path fill-rule="evenodd" clip-rule="evenodd" d="M60.0768 11.537V15.1173H59.4616V11.537H58.5273V10.9595H61.0338V11.537H60.0768Z" fill="#9E9E9E"/>
<path fill-rule="evenodd" clip-rule="evenodd" d="M64.0859 11.537H62.4681V12.5302H64.0404V13.1308H62.4681V14.5167H64.0859V15.1173H61.8301V10.9595H64.0859V11.537Z" fill="#9E9E9E"/>
<path fill-rule="evenodd" clip-rule="evenodd" d="M66.2969 11.537V15.1173H65.6588V11.537H64.7246V10.9595H67.2311V11.537H66.2969Z" fill="#9E9E9E"/>
<path fill-rule="evenodd" clip-rule="evenodd" d="M29.084 23.2018H29.4713C30.1549 23.2018 30.2917 22.8322 30.2917 22.5781C30.2917 22.2778 30.1322 21.9544 29.4941 21.9544H29.084V23.2018ZM29.084 21.4232H29.2891C29.4258 21.4232 29.9499 21.4232 29.9499 20.8226C29.9499 20.2913 29.5397 20.222 29.3118 20.222H29.084V21.4232ZM29.084 19.6445C29.6081 19.6445 29.8359 19.6907 30.0638 19.8524C30.2461 19.991 30.5423 20.2451 30.5423 20.7995C30.5423 21.0074 30.4967 21.3077 30.2005 21.5618C30.6562 21.7004 30.9069 22.093 30.9069 22.5088C30.9069 22.7167 30.8841 23.1787 30.4967 23.5021C30.1549 23.7793 29.8131 23.8024 29.403 23.8024H28.4688V19.6445H29.084Z" fill="#9E9E9E"/>
<path fill-rule="evenodd" clip-rule="evenodd" d="M35.806 20.6148C35.3502 20.199 34.9173 20.1528 34.6894 20.1528C33.8008 20.1528 33.1855 20.8227 33.1855 21.7236C33.1855 22.6244 33.8236 23.2943 34.6894 23.2943C35.1907 23.2943 35.5781 23.0402 35.806 22.8092V23.5715C35.3958 23.8025 34.9629 23.8718 34.6894 23.8718C33.9375 23.8718 33.459 23.5484 33.2311 23.2943C32.7526 22.8554 32.5703 22.3241 32.5703 21.7236C32.5703 20.9613 32.8893 20.43 33.2311 20.1066C33.6413 19.6908 34.1426 19.5522 34.7122 19.5522C35.0996 19.5522 35.4414 19.6215 35.806 19.8525V20.6148Z" fill="#9E9E9E"/>
<path fill-rule="evenodd" clip-rule="evenodd" d="M38.7467 22.1856L38.1315 20.7766L37.4935 22.1856H38.7467ZM38.9974 22.7862H37.2428L36.7871 23.8026H36.1035L38.1543 19.3906L40.1139 23.8026H39.4303L38.9974 22.7862Z" fill="#9E9E9E"/>
<path fill-rule="evenodd" clip-rule="evenodd" d="M41.2533 21.2615H43.0078V19.6445H43.6458V23.8024H43.0078V21.862H41.2533V23.8024H40.6152V19.6445H41.2533V21.2615Z" fill="#9E9E9E"/>
<path fill-rule="evenodd" clip-rule="evenodd" d="M45.4922 21.2846L47.0872 19.6445H47.9075L46.0618 21.5156L47.9303 23.8024H47.0872L45.6289 21.9544L45.4922 22.0699V23.8024H44.877V19.6445H45.4922V21.2846Z" fill="#9E9E9E"/>
<path fill-rule="evenodd" clip-rule="evenodd" d="M49.8672 20.222V23.8024H49.2292V20.222H48.2949V19.6445H50.8014V20.222H49.8672Z" fill="#9E9E9E"/>
<path fill-rule="evenodd" clip-rule="evenodd" d="M56.2025 19.6445V23.8024H55.5644V20.222H53.7871V23.8024H53.1719V19.6445H56.2025Z" fill="#9E9E9E"/>
<path fill-rule="evenodd" clip-rule="evenodd" d="M59.6888 20.222H58.0482V21.2384H59.6204V21.8158H58.0482V23.2018H59.6888V23.8024H57.4102V19.6445H59.6888V20.222Z" fill="#9E9E9E"/>
<path fill-rule="evenodd" clip-rule="evenodd" d="M61.8769 20.222V23.8024H61.2617V20.222H60.3047V19.6445H62.834V20.222H61.8769Z" fill="#9E9E9E"/>
<path fill-rule="evenodd" clip-rule="evenodd" d="M65.8867 20.222H64.2461V21.2384H65.8411V21.8158H64.2461V23.2018H65.8867V23.8024H63.6309V19.6445H65.8867V20.222Z" fill="#9E9E9E"/>
<path fill-rule="evenodd" clip-rule="evenodd" d="M67.5742 21.5156H67.8704C68.4173 21.5156 68.668 21.2384 68.668 20.8688C68.668 20.6378 68.5768 20.222 67.8704 20.222H67.5742V21.5156ZM67.8704 19.6445C68.1211 19.6445 68.4629 19.6445 68.7591 19.8524C69.1009 20.0834 69.2832 20.4761 69.2832 20.8688C69.2832 21.1229 69.2148 21.4925 68.873 21.7928C68.554 22.0699 68.1667 22.1161 67.8704 22.1161H67.5742V23.8024H66.959V19.6445H67.8704Z" fill="#9E9E9E"/>
<path fill-rule="evenodd" clip-rule="evenodd" d="M70.7865 23.2018H71.1738C71.3333 23.2018 71.9941 23.2018 71.9941 22.5781C71.9941 22.2547 71.8574 21.9082 71.1738 21.9082H70.7865V23.2018ZM70.1484 19.6445H72.1992V20.222H70.7865V21.3077H71.1966C71.4928 21.3077 71.903 21.3539 72.222 21.6542C72.4499 21.862 72.6094 22.1854 72.6094 22.555C72.6094 22.9477 72.4499 23.3404 72.1081 23.5714C71.8118 23.7793 71.4473 23.8024 71.1966 23.8024H70.1484V19.6445Z" fill="#9E9E9E"/>
<path fill-rule="evenodd" clip-rule="evenodd" d="M73.7031 19.6445L74.7741 21.7928L75.7311 19.6445H76.3691L74.5234 23.8024H73.8626L74.4323 22.555L72.9512 19.6445H73.7031Z" fill="#9E9E9E"/>
<path fill-rule="evenodd" clip-rule="evenodd" d="M77.5325 21.5156H77.806C78.3756 21.5156 78.6263 21.2384 78.6263 20.8688C78.6263 20.6378 78.5124 20.222 77.806 20.222H77.5325V21.5156ZM77.806 19.6445C78.0566 19.6445 78.4212 19.6445 78.7174 19.8524C79.0592 20.0834 79.2187 20.4761 79.2187 20.8688C79.2187 21.1229 79.1732 21.4925 78.8086 21.7928C78.4896 22.0699 78.125 22.1161 77.806 22.1161H77.5325V23.8024H76.8945V19.6445H77.806Z" fill="#9E9E9E"/>
<path fill-rule="evenodd" clip-rule="evenodd" d="M80.1074 19.6445H82.1582V20.222H80.7454V23.8024H80.1074V19.6445Z" fill="#9E9E9E"/>
<path fill-rule="evenodd" clip-rule="evenodd" d="M85.2578 20.222H83.6172V21.2384H85.2122V21.8158H83.6172V23.2018H85.2578V23.8024H83.002V19.6445H85.2578V20.222Z" fill="#9E9E9E"/>
<path fill-rule="evenodd" clip-rule="evenodd" d="M21.7471 1.55811V24.357H22.0433V1.55811H21.7471ZM15.0245 20.4994V24.357H15.3208V20.3839C15.2524 20.407 15.1841 20.4301 15.1385 20.4763L15.0245 20.4994ZM15.0245 1.55811V16.7342C15.1385 16.6418 15.2296 16.5725 15.3208 16.4801V1.55811H15.0245ZM7.32213 20.176V24.357H7.61838V20.3146C7.52722 20.2684 7.41328 20.2222 7.32213 20.176ZM7.32213 10.2896V15.8103C7.41328 15.9489 7.52722 16.0875 7.61838 16.203V9.98929C7.52722 10.0817 7.41328 10.1741 7.32213 10.2896ZM7.32213 1.55811V6.40892C7.41328 6.38582 7.52722 6.36273 7.61838 6.33963V1.55811H7.32213ZM0.599609 1.55811V24.357H0.895856V1.55811H0.599609Z" fill="#9E9E9E"/>
<path fill-rule="evenodd" clip-rule="evenodd" d="M17.4169 7.81751C17.4169 7.93301 17.5992 8.76458 17.6448 9.66544C17.7132 10.7049 17.7132 11.9754 17.5081 13.0148C17.303 14.3084 16.8016 15.6712 15.9129 16.6183C14.8191 17.7963 13.1099 18.3045 11.5603 18.3045C10.0563 18.3045 8.48394 17.8194 7.39011 16.7107C6.41022 15.7174 6.0456 14.3777 6.0456 12.9686C6.0456 12.1832 6.20512 11.421 6.45579 10.7742C6.95713 9.43445 8.14212 8.94937 9.50941 8.99557C10.1475 9.01867 11.378 9.13416 11.8566 9.64234C12.4947 10.3122 12.3579 11.6982 12.1073 12.4373C12.0617 12.5528 11.9705 12.8993 11.5376 12.9455C11.3097 12.9686 10.7628 12.9224 10.5121 12.8531C10.3754 12.7838 10.307 12.599 10.307 12.4373C10.2842 12.0909 10.4893 11.7444 10.4893 11.421C10.4893 11.2824 10.3982 11.1669 10.2386 11.1207C9.89681 11.0052 9.00807 10.7511 8.57509 11.3286C8.41558 11.5596 8.23327 12.3449 8.30164 12.8993C8.37 13.5923 8.78019 14.1005 9.16759 14.3546C9.60056 14.6318 10.307 14.8166 11.0134 14.8627C11.811 14.8858 12.677 14.7473 13.1783 14.3546C14.1354 13.6154 14.3177 12.7376 14.4317 11.5365C14.6595 9.61925 13.8164 7.84061 11.8794 7.12454C8.98528 6.03888 5.49869 6.70875 4.29091 9.91953C3.24266 12.6914 3.63005 16.1563 5.70378 18.3276C7.9826 20.753 11.9705 21.1688 14.933 19.9908C17.1207 19.1361 18.488 17.5653 19.2628 15.3478C19.7185 14.1236 19.878 12.7838 19.9008 11.4672C19.9236 10.7973 19.878 10.1967 19.8553 9.66544C19.8097 9.15726 19.7185 8.55668 19.6502 8.164C19.5818 7.93301 19.3995 7.88681 19.3083 7.86371L17.941 7.56342C17.7587 7.54032 17.4853 7.56342 17.4169 7.81751Z" fill="#FBC90B"/>
<path fill-rule="evenodd" clip-rule="evenodd" d="M52.123 1.51189V2.36656L53.194 1.2116V0.356934L52.123 1.51189Z" fill="#9E9E9E"/>
<path fill-rule="evenodd" clip-rule="evenodd" d="M69.1914 1.51189V2.36656L70.2624 1.2116V0.356934L69.1914 1.51189Z" fill="#9E9E9E"/>
<path fill-rule="evenodd" clip-rule="evenodd" d="M51.1426 21.8849V22.7396L52.2135 21.6077V20.73L51.1426 21.8849Z" fill="#9E9E9E"/>
</g>
<defs>
<clipPath id="clip0_968_2246">
<rect width="85" height="24" fill="white" transform="translate(0.595703 0.356934)"/>
</clipPath>
</defs>
</svg>
