<svg width="100" height="29" viewBox="0 0 100 29" fill="none" xmlns="http://www.w3.org/2000/svg">
<g clip-path="url(#clip0_1913_442)">
<path fill-rule="evenodd" clip-rule="evenodd" d="M35.4663 3.29696H33.5554V4.42882H35.4132V5.12949H33.5554V6.74643H35.4663V7.4471H32.8389V2.56934H35.4663V3.29696Z" fill="#9E9E9E"/>
<path fill-rule="evenodd" clip-rule="evenodd" d="M37.4304 6.74643H37.8816C38.6778 6.74643 38.837 6.34219 38.837 6.01881C38.837 5.66847 38.6778 5.29118 37.9081 5.29118H37.4304V6.74643ZM37.4304 4.67136H37.6693C37.8285 4.67136 38.4389 4.67136 38.4389 3.94373C38.4389 3.35086 37.9612 3.29696 37.6693 3.29696H37.4304V4.67136ZM37.4304 2.56934C38.0408 2.56934 38.3062 2.65018 38.5716 2.83883C38.7839 2.97357 39.1289 3.29696 39.1289 3.94373C39.1289 4.18628 39.0759 4.53661 38.7309 4.83305C39.2616 4.99474 39.5536 5.45288 39.5536 5.96491C39.5536 6.1805 39.527 6.71948 39.0759 7.09677C38.6778 7.42015 38.2797 7.4471 37.802 7.4471H36.7139V2.56934H37.4304Z" fill="#9E9E9E"/>
<path fill-rule="evenodd" clip-rule="evenodd" d="M41.2 4.77915H41.545C42.1554 4.77915 42.4739 4.48271 42.4739 4.02458C42.4739 3.75509 42.3677 3.27001 41.5184 3.27001H41.2V4.77915ZM41.5184 2.56934C41.8369 2.56934 42.235 2.62323 42.58 2.83883C42.9781 3.10832 43.1639 3.5934 43.1639 4.02458C43.1639 4.29407 43.1108 4.7522 42.7127 5.07559C42.3146 5.42593 41.89 5.45288 41.545 5.45288H41.2V7.4471H40.4834V2.56934H41.5184Z" fill="#9E9E9E"/>
<path fill-rule="evenodd" clip-rule="evenodd" d="M48.0734 5.02149C48.0734 3.94353 47.3569 3.16201 46.3218 3.16201C45.2868 3.16201 44.5703 3.94353 44.5703 5.02149C44.5703 6.09945 45.2868 6.85402 46.3218 6.85402C47.3569 6.85402 48.0734 6.09945 48.0734 5.02149ZM48.8165 5.02149C48.8165 6.44978 47.755 7.52774 46.3218 7.52774C44.8887 7.52774 43.8271 6.44978 43.8271 5.02149C43.8271 3.59319 44.8887 2.48828 46.3218 2.48828C47.755 2.48828 48.8165 3.59319 48.8165 5.02149Z" fill="#9E9E9E"/>
<path fill-rule="evenodd" clip-rule="evenodd" d="M53.2495 2.56934V7.4471H52.5064V3.29696H50.4628V7.4471H49.7197V2.56934H53.2495Z" fill="#9E9E9E"/>
<path fill-rule="evenodd" clip-rule="evenodd" d="M57.31 3.29696H55.3992V4.42882H57.2569V5.12949H55.3992V6.74643H57.31V7.4471H54.6826V2.56934H57.31V3.29696Z" fill="#9E9E9E"/>
<path fill-rule="evenodd" clip-rule="evenodd" d="M61.7689 4.15949L58.5576 7.66286V2.5695H59.2742V5.85728L62.512 2.38086V7.44727H61.7689V4.15949Z" fill="#9E9E9E"/>
<path fill-rule="evenodd" clip-rule="evenodd" d="M67.4754 3.70099C66.9447 3.2159 66.467 3.16201 66.2016 3.16201C65.14 3.16201 64.45 3.94353 64.45 5.02149C64.45 6.04555 65.1931 6.85402 66.2016 6.85402C66.7854 6.85402 67.2101 6.55758 67.4754 6.28809V7.17741C67.0243 7.47384 66.4935 7.52774 66.175 7.52774C65.2992 7.52774 64.7684 7.12351 64.4765 6.88097C63.9192 6.34199 63.7334 5.72216 63.7334 5.02149C63.7334 4.13217 64.0784 3.51234 64.4765 3.13506C64.9807 2.64998 65.5381 2.48828 66.2016 2.48828C66.6527 2.48828 67.0774 2.56913 67.4754 2.83862V3.70099Z" fill="#9E9E9E"/>
<path fill-rule="evenodd" clip-rule="evenodd" d="M69.413 4.50966L71.2708 2.56934H72.2262L70.0765 4.77915L72.2527 7.4471H71.2708L69.5457 5.29118L69.413 5.42593V7.4471H68.6699V2.56934H69.413V4.50966Z" fill="#9E9E9E"/>
<path fill-rule="evenodd" clip-rule="evenodd" d="M76.3929 4.15949L73.1816 7.66286V2.5695H73.8982V5.85728L77.136 2.38086V7.44727H76.3929V4.15949Z" fill="#9E9E9E"/>
<path fill-rule="evenodd" clip-rule="evenodd" d="M81.6488 4.15949L78.4375 7.66286V2.5695H79.1541V5.85728L82.3653 2.38086V7.44727H81.6488V4.15949Z" fill="#9E9E9E"/>
<path fill-rule="evenodd" clip-rule="evenodd" d="M33.1834 12.7285L34.4308 15.2348L35.5454 12.7285H36.2885L34.1388 17.5793H33.3692L34.0327 16.1241L32.3076 12.7285H33.1834Z" fill="#9E9E9E"/>
<path fill-rule="evenodd" clip-rule="evenodd" d="M37.6425 14.6149H39.7126V12.7285H40.4292V17.5793H39.7126V15.3156H37.6425V17.5793H36.8994V12.7285H37.6425V14.6149Z" fill="#9E9E9E"/>
<path fill-rule="evenodd" clip-rule="evenodd" d="M45.1011 14.2923L41.8633 17.7957V12.7293H42.6064V16.017L45.8176 12.5137V17.5801H45.1011V14.2923Z" fill="#9E9E9E"/>
<path fill-rule="evenodd" clip-rule="evenodd" d="M47.8347 16.8787H48.2859C49.1086 16.8787 49.2413 16.4475 49.2413 16.151C49.2413 15.8007 49.0821 15.4234 48.3124 15.4234H47.8347V16.8787ZM47.8347 14.8036H48.0736C48.2594 14.8036 48.8432 14.8036 48.8432 14.1029C48.8432 13.4831 48.3921 13.4022 48.1001 13.4022H47.8347V14.8036ZM47.8347 12.7285C48.4451 12.7285 48.7371 12.7824 49.0025 12.9711C49.2148 13.1328 49.5332 13.4292 49.5332 14.076C49.5332 14.3185 49.4802 14.6958 49.1352 14.9653C49.6925 15.127 49.9579 15.5851 49.9579 16.0702C49.9579 16.3127 49.9579 16.8517 49.4802 17.229C49.0821 17.5524 48.7105 17.5793 48.2063 17.5793H47.1182V12.7285H47.8347Z" fill="#9E9E9E"/>
<path fill-rule="evenodd" clip-rule="evenodd" d="M53.6735 13.4022H51.7626V14.561H53.6204V15.2617H51.7626V16.8787H53.6735V17.5793H51.0195V12.7285H53.6735V13.4022Z" fill="#9E9E9E"/>
<path fill-rule="evenodd" clip-rule="evenodd" d="M55.6376 14.9114H55.9561C56.5931 14.9114 56.885 14.588 56.885 14.1568C56.885 13.8873 56.7788 13.4022 55.9561 13.4022H55.6376V14.9114ZM55.9561 12.7285C56.248 12.7285 56.6727 12.7285 57.0177 12.9711C57.4158 13.2405 57.6015 13.7256 57.6015 14.1568C57.6015 14.4533 57.5219 14.8844 57.1238 15.2348C56.7523 15.5582 56.3277 15.5851 55.9561 15.5851H55.6376V17.5793H54.8945V12.7285H55.9561Z" fill="#9E9E9E"/>
<path fill-rule="evenodd" clip-rule="evenodd" d="M62.0342 13.8607C61.5034 13.3757 61.0257 13.3218 60.7338 13.3218C59.6988 13.3218 59.0087 14.1033 59.0087 15.1543C59.0087 16.1784 59.7253 16.9868 60.7338 16.9868C61.3177 16.9868 61.7688 16.6904 62.0342 16.4209V17.3102C61.5565 17.6067 61.0523 17.6606 60.7338 17.6606C59.858 17.6606 59.3007 17.2563 59.0353 16.9868C58.4779 16.4748 58.2656 15.855 58.2656 15.1543C58.2656 14.265 58.6372 13.6452 59.0353 13.2679C59.5395 12.7828 60.0968 12.6211 60.7603 12.6211C61.185 12.6211 61.6096 12.7019 62.0342 12.9714V13.8607Z" fill="#9E9E9E"/>
<path fill-rule="evenodd" clip-rule="evenodd" d="M66.1753 14.2923L62.9375 17.7957V12.7293H63.6806V16.017L66.8919 12.5137V17.5801H66.1753V14.2923Z" fill="#9E9E9E"/>
<path fill-rule="evenodd" clip-rule="evenodd" d="M69.6523 13.4022V17.5793H68.9358V13.4022H67.8477V12.7285H70.767V13.4022H69.6523Z" fill="#9E9E9E"/>
<path fill-rule="evenodd" clip-rule="evenodd" d="M74.3227 13.4022H72.4384V14.561H74.2696V15.2617H72.4384V16.8787H74.3227V17.5793H71.6953V12.7285H74.3227V13.4022Z" fill="#9E9E9E"/>
<path fill-rule="evenodd" clip-rule="evenodd" d="M76.8976 13.4022V17.5793H76.1545V13.4022H75.0664V12.7285H77.9857V13.4022H76.8976Z" fill="#9E9E9E"/>
<path fill-rule="evenodd" clip-rule="evenodd" d="M33.5554 27.0115H34.0066C34.8028 27.0115 34.962 26.5803 34.962 26.2838C34.962 25.9335 34.7762 25.5562 34.0331 25.5562H33.5554V27.0115ZM33.5554 24.9364H33.7943C33.9535 24.9364 34.5639 24.9364 34.5639 24.2357C34.5639 23.6159 34.0862 23.5351 33.8208 23.5351H33.5554V24.9364ZM33.5554 22.8613C34.1658 22.8613 34.4312 22.9152 34.6966 23.1039C34.9089 23.2656 35.2539 23.562 35.2539 24.2088C35.2539 24.4513 35.2009 24.8017 34.8559 25.0981C35.3866 25.2598 35.6786 25.7179 35.6786 26.203C35.6786 26.4455 35.652 26.9845 35.2009 27.3618C34.8028 27.6852 34.4047 27.7121 33.927 27.7121H32.8389V22.8613H33.5554Z" fill="#9E9E9E"/>
<path fill-rule="evenodd" clip-rule="evenodd" d="M41.3848 23.9936C40.854 23.5085 40.3498 23.4546 40.0844 23.4546C39.0493 23.4546 38.3328 24.2361 38.3328 25.2871C38.3328 26.3381 39.0759 27.1196 40.0844 27.1196C40.6682 27.1196 41.1194 26.8232 41.3848 26.5537V27.443C40.9071 27.7125 40.4028 27.7934 40.0844 27.7934C39.2086 27.7934 38.6512 27.4161 38.3859 27.1196C37.8285 26.6076 37.6162 25.9878 37.6162 25.2871C37.6162 24.3978 37.9878 23.778 38.3859 23.4007C38.8636 22.9156 39.4474 22.7539 40.1109 22.7539C40.5621 22.7539 40.9602 22.8348 41.3848 23.1042V23.9936Z" fill="#9E9E9E"/>
<path fill-rule="evenodd" clip-rule="evenodd" d="M44.809 25.8263L44.0925 24.1824L43.3494 25.8263H44.809ZM45.101 26.5269H43.0574L42.5266 27.7127H41.7305L44.119 22.5654L46.4014 27.7127H45.6052L45.101 26.5269Z" fill="#9E9E9E"/>
<path fill-rule="evenodd" clip-rule="evenodd" d="M47.7294 24.7478H49.773V22.8613H50.5161V27.7121H49.773V25.4484H47.7294V27.7121H46.9863V22.8613H47.7294V24.7478Z" fill="#9E9E9E"/>
<path fill-rule="evenodd" clip-rule="evenodd" d="M52.6658 24.7747L54.5235 22.8613H55.479L53.3293 25.0442L55.5055 27.7121H54.5235L52.825 25.5562L52.6658 25.691V27.7121H51.9492V22.8613H52.6658V24.7747Z" fill="#9E9E9E"/>
<path fill-rule="evenodd" clip-rule="evenodd" d="M57.7609 23.5351V27.7121H57.0178V23.5351H55.9297V22.8613H58.849V23.5351H57.7609Z" fill="#9E9E9E"/>
<path fill-rule="evenodd" clip-rule="evenodd" d="M65.1391 22.8613V27.7121H64.396V23.5351H62.3259V27.7121H61.6094V22.8613H65.1391Z" fill="#9E9E9E"/>
<path fill-rule="evenodd" clip-rule="evenodd" d="M69.2008 23.5351H67.29V24.7208H69.1212V25.3945H67.29V27.0115H69.2008V27.7121H66.5469V22.8613H69.2008V23.5351Z" fill="#9E9E9E"/>
<path fill-rule="evenodd" clip-rule="evenodd" d="M71.7482 23.5351V27.7121H71.0316V23.5351H69.917V22.8613H72.8629V23.5351H71.7482Z" fill="#9E9E9E"/>
<path fill-rule="evenodd" clip-rule="evenodd" d="M76.4194 23.5351H74.5086V24.7208H76.3663V25.3945H74.5086V27.0115H76.4194V27.7121H73.792V22.8613H76.4194V23.5351Z" fill="#9E9E9E"/>
<path fill-rule="evenodd" clip-rule="evenodd" d="M78.3845 25.0442H78.7295C79.3665 25.0442 79.6584 24.7208 79.6584 24.2896C79.6584 24.0201 79.5523 23.5351 78.7295 23.5351H78.3845V25.0442ZM78.7295 22.8613C79.0215 22.8613 79.4196 22.8613 79.7646 23.1039C80.1627 23.3734 80.375 23.8315 80.375 24.2896C80.375 24.5861 80.2954 25.0172 79.8973 25.3676C79.5257 25.691 79.0746 25.7449 78.7295 25.7449H78.3845V27.7121H77.668V22.8613H78.7295Z" fill="#9E9E9E"/>
<path fill-rule="evenodd" clip-rule="evenodd" d="M82.1269 27.0115H82.5781C82.7638 27.0115 83.5335 27.0115 83.5335 26.2838C83.5335 25.9066 83.3742 25.5023 82.5781 25.5023H82.1269V27.0115ZM81.3838 22.8613H83.7723V23.5351H82.1269V24.8017H82.6046C82.9496 24.8017 83.4273 24.8556 83.7989 25.2059C84.0643 25.4484 84.25 25.8257 84.25 26.2569C84.25 26.715 84.0643 27.1732 83.6662 27.4427C83.3212 27.6852 82.8965 27.7121 82.6046 27.7121H81.3838V22.8613Z" fill="#9E9E9E"/>
<path fill-rule="evenodd" clip-rule="evenodd" d="M85.5233 22.8613L86.7706 25.3676L87.8853 22.8613H88.6284L86.4787 27.7121H85.709L86.3725 26.2569L84.6475 22.8613H85.5233Z" fill="#9E9E9E"/>
<path fill-rule="evenodd" clip-rule="evenodd" d="M89.9833 25.0442H90.3018C90.9653 25.0442 91.2572 24.7208 91.2572 24.2896C91.2572 24.0201 91.1245 23.5351 90.3018 23.5351H89.9833V25.0442ZM90.3018 22.8613C90.5937 22.8613 91.0184 22.8613 91.3634 23.1039C91.7615 23.3734 91.9473 23.8315 91.9473 24.2896C91.9473 24.5861 91.8942 25.0172 91.4695 25.3676C91.098 25.691 90.6734 25.7449 90.3018 25.7449H89.9833V27.7121H89.2402V22.8613H90.3018Z" fill="#9E9E9E"/>
<path fill-rule="evenodd" clip-rule="evenodd" d="M92.9824 22.8613H95.371V23.5351H93.7255V27.7121H92.9824V22.8613Z" fill="#9E9E9E"/>
<path fill-rule="evenodd" clip-rule="evenodd" d="M98.9809 23.5351H97.0701V24.7208H98.9278V25.3945H97.0701V27.0115H98.9809V27.7121H96.3535V22.8613H98.9809V23.5351Z" fill="#9E9E9E"/>
<path fill-rule="evenodd" clip-rule="evenodd" d="M25.0095 1.76074V28.3594H25.3545V1.76074H25.0095ZM17.1797 23.8589V28.3594H17.5248V23.7242C17.4451 23.7511 17.3655 23.7781 17.3124 23.832L17.1797 23.8589ZM17.1797 1.76074V19.4662C17.3124 19.3584 17.4186 19.2776 17.5248 19.1698V1.76074H17.1797ZM8.20866 23.4816V28.3594H8.55371V23.6433C8.44754 23.5894 8.31483 23.5355 8.20866 23.4816ZM8.20866 11.9475V18.3883C8.31483 18.55 8.44754 18.7117 8.55371 18.8464V11.5971C8.44754 11.7049 8.31483 11.8127 8.20866 11.9475ZM8.20866 1.76074V7.42003C8.31483 7.39308 8.44754 7.36613 8.55371 7.33918V1.76074H8.20866ZM0.378906 1.76074V28.3594H0.723946V1.76074H0.378906Z" fill="#9E9E9E"/>
<path fill-rule="evenodd" clip-rule="evenodd" d="M19.9664 9.06371C19.9664 9.19845 20.1787 10.1686 20.2318 11.2196C20.3114 12.4323 20.3114 13.9145 20.0726 15.1272C19.8337 16.6364 19.2498 18.2264 18.2147 19.3313C16.9407 20.7057 14.95 21.2986 13.1452 21.2986C11.3935 21.2986 9.56211 20.7326 8.28812 19.4391C7.14683 18.2803 6.72216 16.7172 6.72216 15.0733C6.72216 14.1571 6.90796 13.2678 7.19991 12.5132C7.78383 10.9501 9.16399 10.3842 10.7565 10.4381C11.4996 10.4651 12.9329 10.5998 13.4903 11.1927C14.2334 11.9742 14.0742 13.5911 13.7822 14.4535C13.7291 14.5883 13.623 14.9925 13.1187 15.0464C12.8533 15.0733 12.2163 15.0194 11.9243 14.9386C11.7651 14.8577 11.6854 14.6422 11.6854 14.4535C11.6589 14.0493 11.8978 13.645 11.8978 13.2678C11.8978 13.1061 11.7916 12.9713 11.6058 12.9174C11.2077 12.7827 10.1726 12.4862 9.66828 13.16C9.48249 13.4294 9.27015 14.3457 9.34978 14.9925C9.4294 15.801 9.90715 16.3938 10.3584 16.6903C10.8626 17.0137 11.6854 17.2293 12.5082 17.2832C13.4372 17.3101 14.4458 17.1484 15.0297 16.6903C16.1444 15.8279 16.3567 14.8038 16.4895 13.4025C16.7549 11.1657 15.7728 9.09066 13.5168 8.25524C10.146 6.98864 6.08517 7.77016 4.67846 11.5161C3.45755 14.7499 3.90876 18.7923 6.32404 21.3255C8.9782 24.1551 13.623 24.6402 17.0734 23.2658C19.6214 22.2687 21.2139 20.4362 22.1163 17.8491C22.6471 16.4208 22.8329 14.8577 22.8594 13.3216C22.886 12.5401 22.8329 11.8395 22.8063 11.2196C22.7533 10.6268 22.6471 9.92608 22.5675 9.46794C22.4878 9.19845 22.2755 9.14456 22.1694 9.11761L20.5769 8.76727C20.3645 8.74032 20.046 8.76727 19.9664 9.06371Z" fill="#FBC90B"/>
<path fill-rule="evenodd" clip-rule="evenodd" d="M60.3896 1.70682V2.70394L61.637 1.35649V0.359375L60.3896 1.70682Z" fill="#9E9E9E"/>
<path fill-rule="evenodd" clip-rule="evenodd" d="M80.2686 1.70682V2.70394L81.5159 1.35649V0.359375L80.2686 1.70682Z" fill="#9E9E9E"/>
<path fill-rule="evenodd" clip-rule="evenodd" d="M59.2471 25.4754V26.4725L60.4944 25.152V24.1279L59.2471 25.4754Z" fill="#9E9E9E"/>
</g>
<defs>
<clipPath id="clip0_1913_442">
<rect width="99" height="28" fill="white" transform="translate(0.375 0.359375)"/>
</clipPath>
</defs>
</svg>
