<svg width="151" height="25" viewBox="0 0 151 25" fill="none" xmlns="http://www.w3.org/2000/svg">
<path d="M46.209 19.6719C46.209 19.4962 46.209 19.2765 46.0113 19.2765H44.847C44.7152 19.2765 44.6493 19.2106 44.6493 18.9909V5.50264C44.6493 5.28296 44.7152 5.21706 44.847 5.21706H46.0113C46.209 5.21706 46.209 5.01935 46.209 4.84361C46.209 4.66786 46.209 4.44819 46.0113 4.44819H30.6997C30.502 4.44819 30.502 4.66786 30.502 4.84361C30.502 5.01935 30.502 5.21706 30.6997 5.21706H31.864C31.9958 5.21706 32.0617 5.28296 32.0617 5.50264V18.9909C32.0617 19.2106 31.9958 19.2765 31.864 19.2765H30.6997C30.502 19.2765 30.502 19.4962 30.502 19.6719C30.502 19.8477 30.502 20.0454 30.6997 20.0454H35.928C36.1257 20.0454 36.1257 19.8477 36.1257 19.6719C36.1257 19.4962 36.1257 19.2765 35.928 19.2765H34.7637C34.6319 19.2765 34.566 19.2106 34.566 18.9909V5.43674H42.1449V18.9909C42.1449 19.2106 42.079 19.2765 41.9472 19.2765H40.7829C40.5852 19.2765 40.5852 19.4962 40.5852 19.6719C40.5852 19.8477 40.5852 20.0454 40.7829 20.0454H46.0113C46.209 20.0454 46.209 19.8477 46.209 19.6719Z" fill="#323232"/>
<path d="M55.3828 9.32505C55.3828 10.5553 54.8556 13.2353 52.3073 13.2353H51.4066V5.41477H52.3073C54.8556 5.41477 55.3828 8.09485 55.3828 9.32505ZM58.1507 9.32505C58.1507 5.83216 55.7123 4.44819 52.527 4.44819H47.5403C47.3426 4.44819 47.3426 4.66786 47.3426 4.84361C47.3426 5.01935 47.3426 5.21706 47.5403 5.21706H48.7046C48.8364 5.21706 48.9023 5.28296 48.9023 5.50264V18.9909C48.9023 19.2106 48.8364 19.2765 48.7046 19.2765H47.5403C47.3426 19.2765 47.3426 19.4962 47.3426 19.6719C47.3426 19.8477 47.3426 20.0454 47.5403 20.0454H52.7686C52.9663 20.0454 52.9663 19.8477 52.9663 19.6719C52.9663 19.4962 52.9663 19.2765 52.7686 19.2765H51.6043C51.4725 19.2765 51.4066 19.2106 51.4066 18.9909V14.2019H52.527C55.7123 14.2019 58.1507 12.8179 58.1507 9.32505Z" fill="#323232"/>
<path d="M73.1919 12.2248C73.1919 16.0692 71.1928 19.1667 67.8756 19.1667C64.5365 19.1667 62.6034 16.0692 62.6034 12.2248C62.6034 8.38043 64.5365 5.261 67.8756 5.261C71.1928 5.261 73.1919 8.38043 73.1919 12.2248ZM75.9598 12.2468C75.9598 7.80927 72.3791 4.18457 67.8756 4.18457C63.4162 4.18457 59.8354 7.80927 59.8354 12.2468C59.8354 16.7282 63.4162 20.309 67.8756 20.309C72.3791 20.309 75.9598 16.7282 75.9598 12.2468Z" fill="#323232"/>
<path d="M101.742 18.7712C101.742 18.5296 101.566 18.4417 101.368 18.4417C101.148 18.4417 100.467 18.8152 100.028 18.8152C98.0289 18.8152 97.0184 17.2335 96.0738 15.3442C95.0852 13.3671 93.8331 10.753 90.6477 10.2257C91.0212 7.96304 92.6029 5.30493 94.2505 5.30493C94.1846 5.50264 94.1406 5.67839 94.1406 5.83216C94.1406 6.60104 94.6459 6.95252 95.3928 6.95252C96.2715 6.95252 96.6669 6.22758 96.6669 5.67839C96.6669 4.29441 95.4148 4.18457 94.7997 4.18457C91.6363 4.18457 90.0766 7.52369 89.4834 10.072H89.3956V5.50264C89.3956 5.34887 89.4395 5.21706 89.6372 5.21706H90.7576C90.9553 5.21706 90.9553 5.01935 90.9553 4.84361C90.9553 4.66786 90.9553 4.44819 90.7576 4.44819H85.5292C85.3315 4.44819 85.3315 4.66786 85.3315 4.84361C85.3315 5.01935 85.3315 5.21706 85.5292 5.21706H86.6935C86.8253 5.21706 86.8912 5.28296 86.8912 5.50264V10.072H86.8034C86.2102 7.52369 84.6505 4.18457 81.4871 4.18457C80.872 4.18457 79.6199 4.29441 79.6199 5.67839C79.6199 6.22758 80.0153 6.95252 80.894 6.95252C81.6409 6.95252 82.1462 6.60104 82.1462 5.83216C82.1462 5.67839 82.1022 5.50264 82.0363 5.30493C83.6839 5.30493 85.2656 7.96304 85.6391 10.2257C82.4537 10.753 81.2016 13.3671 80.213 15.3442C79.2684 17.2335 78.2579 18.8152 76.2588 18.8152C75.8194 18.8152 75.1384 18.4417 74.9187 18.4417C74.721 18.4417 74.5453 18.5296 74.5453 18.7712C74.5453 19.4962 76.2148 20.331 77.445 20.331C80.4546 20.331 81.3114 19.1447 82.6734 16.5525C83.9036 14.2019 84.8263 11.7195 86.8912 11.7195V18.9909C86.8912 19.2106 86.8253 19.2765 86.6935 19.2765H85.5292C85.3315 19.2765 85.3315 19.4962 85.3315 19.6719C85.3315 19.8477 85.3315 20.0454 85.5292 20.0454H90.7576C90.9553 20.0454 90.9553 19.8477 90.9553 19.6719C90.9553 19.4962 90.9553 19.2765 90.7576 19.2765H89.5933C89.4615 19.2765 89.3956 19.2106 89.3956 18.9909V11.7195C91.4605 11.7195 92.3832 14.2019 93.6134 16.5525C94.9754 19.1447 95.8321 20.331 98.8417 20.331C100.072 20.331 101.742 19.4962 101.742 18.7712Z" fill="#323232"/>
<path d="M118.569 19.6719C118.569 19.4962 118.569 19.2765 118.371 19.2765H117.207C117.075 19.2765 117.009 19.2106 117.009 18.9909V5.50264C117.009 5.28296 117.075 5.21706 117.207 5.21706H118.371C118.569 5.21706 118.569 5.01935 118.569 4.84361C118.569 4.66786 118.569 4.44819 118.371 4.44819H113.143C112.945 4.44819 112.945 4.66786 112.945 4.84361C112.945 5.01935 112.945 5.21706 113.143 5.21706H114.307C114.439 5.21706 114.505 5.28296 114.505 5.50264V5.942L106.047 16.7063V5.50264C106.047 5.28296 106.113 5.21706 106.245 5.21706H107.387C107.585 5.21706 107.585 5.01935 107.585 4.84361C107.585 4.66786 107.585 4.44819 107.387 4.44819H102.181C101.983 4.44819 101.983 4.66786 101.983 4.84361C101.983 5.01935 101.983 5.21706 102.181 5.21706H103.345C103.477 5.21706 103.543 5.28296 103.543 5.50264V18.9909C103.543 19.2106 103.477 19.2765 103.345 19.2765H102.181C101.983 19.2765 101.983 19.4962 101.983 19.6719C101.983 19.8477 101.983 20.0454 102.181 20.0454H107.409C107.607 20.0454 107.607 19.8477 107.607 19.6719C107.607 19.4962 107.607 19.2765 107.409 19.2765H106.245C106.113 19.2765 106.047 19.2106 106.047 18.9909V18.5955L114.505 7.83124V18.9909C114.505 19.2106 114.439 19.2765 114.307 19.2765H113.143C112.945 19.2765 112.945 19.4962 112.945 19.6719C112.945 19.8477 112.945 20.0454 113.143 20.0454H118.371C118.569 20.0454 118.569 19.8477 118.569 19.6719Z" fill="#323232"/>
<path d="M119.308 6.68891C119.286 6.73284 119.242 6.84268 119.242 6.93055C119.242 7.12827 119.44 7.15023 119.725 7.15023C120.011 7.15023 120.143 7.06236 120.209 6.99646L121.241 6.0079C121.615 5.63445 122.12 5.41477 122.801 5.41477H125.327V18.9909C125.327 19.1886 125.261 19.2545 125.13 19.2545H123.965C123.768 19.2545 123.768 19.4522 123.768 19.628C123.768 19.8037 123.768 20.0234 123.965 20.0454H129.194C129.391 20.0234 129.391 19.8037 129.391 19.628C129.391 19.4522 129.391 19.2545 129.194 19.2545H128.029C127.898 19.2545 127.832 19.1886 127.832 18.9909V5.41477H130.358C131.039 5.41477 131.544 5.63445 131.918 6.0079L132.95 6.99646C133.016 7.06236 133.148 7.15023 133.433 7.15023C133.719 7.15023 133.917 7.12827 133.917 6.93055C133.917 6.84268 133.873 6.73284 133.851 6.68891L132.73 4.44819H120.428L119.308 6.68891Z" fill="#323232"/>
<path d="M147.827 12.2248C147.827 16.0692 145.828 19.1667 142.511 19.1667C139.171 19.1667 137.238 16.0692 137.238 12.2248C137.238 8.38043 139.171 5.261 142.511 5.261C145.828 5.261 147.827 8.38043 147.827 12.2248ZM150.595 12.2468C150.595 7.80927 147.014 4.18457 142.511 4.18457C138.051 4.18457 134.47 7.80927 134.47 12.2468C134.47 16.7282 138.051 20.309 142.511 20.309C147.014 20.309 150.595 16.7282 150.595 12.2468Z" fill="#323232"/>
<path fill-rule="evenodd" clip-rule="evenodd" d="M12.3569 24.7138C19.1815 24.7138 24.7138 19.1815 24.7138 12.3569C24.7138 5.53238 19.1815 0 12.3569 0C5.53238 0 0 5.53238 0 12.3569C0 19.1815 5.53238 24.7138 12.3569 24.7138ZM8.35497 6.86475H13.301L9.61395 17.8487H4.66797L8.35497 6.86475ZM15.0991 6.86475H20.0451L16.3581 17.8487H11.4121L15.0991 6.86475Z" fill="#E96A41"/>
</svg>
