<svg width="176" height="29" viewBox="0 0 176 29" fill="none" xmlns="http://www.w3.org/2000/svg">
<path d="M54.0727 22.8604C54.0727 22.6562 54.0727 22.4009 53.843 22.4009H52.49C52.3368 22.4009 52.2603 22.3244 52.2603 22.0691V6.39495C52.2603 6.13968 52.3368 6.06309 52.49 6.06309H53.843C54.0727 6.06309 54.0727 5.83334 54.0727 5.62912C54.0727 5.4249 54.0727 5.16962 53.843 5.16962H36.0501C35.8203 5.16962 35.8203 5.4249 35.8203 5.62912C35.8203 5.83334 35.8203 6.06309 36.0501 6.06309H37.403C37.5562 6.06309 37.6328 6.13968 37.6328 6.39495V22.0691C37.6328 22.3244 37.5562 22.4009 37.403 22.4009H36.0501C35.8203 22.4009 35.8203 22.6562 35.8203 22.8604C35.8203 23.0647 35.8203 23.2944 36.0501 23.2944H42.1257C42.3554 23.2944 42.3554 23.0647 42.3554 22.8604C42.3554 22.6562 42.3554 22.4009 42.1257 22.4009H40.7727C40.6196 22.4009 40.543 22.3244 40.543 22.0691V6.31837H49.3501V22.0691C49.3501 22.3244 49.2735 22.4009 49.1203 22.4009H47.7674C47.5376 22.4009 47.5376 22.6562 47.5376 22.8604C47.5376 23.0647 47.5376 23.2944 47.7674 23.2944H53.843C54.0727 23.2944 54.0727 23.0647 54.0727 22.8604Z" fill="#323232"/>
<path d="M64.7332 10.8368C64.7332 12.2664 64.1206 15.3808 61.1593 15.3808H60.1127V6.29284H61.1593C64.1206 6.29284 64.7332 9.40724 64.7332 10.8368ZM67.9497 10.8368C67.9497 6.77787 65.1161 5.16962 61.4146 5.16962H55.6198C55.39 5.16962 55.39 5.4249 55.39 5.62912C55.39 5.83334 55.39 6.06309 55.6198 6.06309H56.9727C57.1259 6.06309 57.2025 6.13968 57.2025 6.39495V22.0691C57.2025 22.3244 57.1259 22.4009 56.9727 22.4009H55.6198C55.39 22.4009 55.39 22.6562 55.39 22.8604C55.39 23.0647 55.39 23.2944 55.6198 23.2944H61.6954C61.9252 23.2944 61.9252 23.0647 61.9252 22.8604C61.9252 22.6562 61.9252 22.4009 61.6954 22.4009H60.3424C60.1893 22.4009 60.1127 22.3244 60.1127 22.0691V16.504H61.4146C65.1161 16.504 67.9497 14.8957 67.9497 10.8368Z" fill="#323232"/>
<path d="M85.4284 14.2065C85.4284 18.6739 83.1053 22.2733 79.2506 22.2733C75.3704 22.2733 73.1239 18.6739 73.1239 14.2065C73.1239 9.73911 75.3704 6.11415 79.2506 6.11415C83.1053 6.11415 85.4284 9.73911 85.4284 14.2065ZM88.6449 14.232C88.6449 9.07538 84.4838 4.86328 79.2506 4.86328C74.0684 4.86328 69.9074 9.07538 69.9074 14.232C69.9074 19.4397 74.0684 23.6007 79.2506 23.6007C84.4838 23.6007 88.6449 19.4397 88.6449 14.232Z" fill="#323232"/>
<path d="M118.605 21.8138C118.605 21.533 118.4 21.4309 118.171 21.4309C117.915 21.4309 117.124 21.8648 116.613 21.8648C114.29 21.8648 113.116 20.0268 112.018 17.8314C110.87 15.5339 109.415 12.4961 105.713 11.8834C106.147 9.25408 107.985 6.1652 109.9 6.1652C109.823 6.39495 109.772 6.59918 109.772 6.77787C109.772 7.67135 110.359 8.0798 111.227 8.0798C112.248 8.0798 112.708 7.23738 112.708 6.59918C112.708 4.99092 111.253 4.86328 110.538 4.86328C106.862 4.86328 105.049 8.74352 104.36 11.7048H104.258V6.39495C104.258 6.21626 104.309 6.06309 104.539 6.06309H105.841C106.07 6.06309 106.07 5.83334 106.07 5.62912C106.07 5.4249 106.07 5.16962 105.841 5.16962H99.765C99.5353 5.16962 99.5353 5.4249 99.5353 5.62912C99.5353 5.83334 99.5353 6.06309 99.765 6.06309H101.118C101.271 6.06309 101.348 6.13968 101.348 6.39495V11.7048H101.246C100.556 8.74352 98.7439 4.86328 95.0679 4.86328C94.3531 4.86328 92.898 4.99092 92.898 6.59918C92.898 7.23738 93.3576 8.0798 94.3787 8.0798C95.2466 8.0798 95.8338 7.67135 95.8338 6.77787C95.8338 6.59918 95.7827 6.39495 95.7061 6.1652C97.6207 6.1652 99.4587 9.25408 99.8927 11.8834C96.1911 12.4961 94.7361 15.5339 93.5873 17.8314C92.4896 20.0268 91.3153 21.8648 88.9923 21.8648C88.4817 21.8648 87.6904 21.4309 87.4351 21.4309C87.2053 21.4309 87.0011 21.533 87.0011 21.8138C87.0011 22.6562 88.9412 23.6263 90.3708 23.6263C93.8681 23.6263 94.8637 22.2478 96.4464 19.2355C97.876 16.504 98.9482 13.6193 101.348 13.6193V22.0691C101.348 22.3244 101.271 22.4009 101.118 22.4009H99.765C99.5353 22.4009 99.5353 22.6562 99.5353 22.8604C99.5353 23.0647 99.5353 23.2944 99.765 23.2944H105.841C106.07 23.2944 106.07 23.0647 106.07 22.8604C106.07 22.6562 106.07 22.4009 105.841 22.4009H104.488C104.335 22.4009 104.258 22.3244 104.258 22.0691V13.6193C106.658 13.6193 107.73 16.504 109.159 19.2355C110.742 22.2478 111.738 23.6263 115.235 23.6263C116.664 23.6263 118.605 22.6562 118.605 21.8138Z" fill="#323232"/>
<path d="M138.159 22.8604C138.159 22.6562 138.159 22.4009 137.929 22.4009H136.576C136.423 22.4009 136.347 22.3244 136.347 22.0691V6.39495C136.347 6.13968 136.423 6.06309 136.576 6.06309H137.929C138.159 6.06309 138.159 5.83334 138.159 5.62912C138.159 5.4249 138.159 5.16962 137.929 5.16962H131.854C131.624 5.16962 131.624 5.4249 131.624 5.62912C131.624 5.83334 131.624 6.06309 131.854 6.06309H133.207C133.36 6.06309 133.437 6.13968 133.437 6.39495V6.90551L123.608 19.4142V6.39495C123.608 6.13968 123.685 6.06309 123.838 6.06309H125.165C125.395 6.06309 125.395 5.83334 125.395 5.62912C125.395 5.4249 125.395 5.16962 125.165 5.16962H119.115C118.886 5.16962 118.886 5.4249 118.886 5.62912C118.886 5.83334 118.886 6.06309 119.115 6.06309H120.468C120.622 6.06309 120.698 6.13968 120.698 6.39495V22.0691C120.698 22.3244 120.622 22.4009 120.468 22.4009H119.115C118.886 22.4009 118.886 22.6562 118.886 22.8604C118.886 23.0647 118.886 23.2944 119.115 23.2944H125.191C125.421 23.2944 125.421 23.0647 125.421 22.8604C125.421 22.6562 125.421 22.4009 125.191 22.4009H123.838C123.685 22.4009 123.608 22.3244 123.608 22.0691V21.6096L133.437 9.10091V22.0691C133.437 22.3244 133.36 22.4009 133.207 22.4009H131.854C131.624 22.4009 131.624 22.6562 131.624 22.8604C131.624 23.0647 131.624 23.2944 131.854 23.2944H137.929C138.159 23.2944 138.159 23.0647 138.159 22.8604Z" fill="#323232"/>
<path d="M139.018 7.77346C138.992 7.82452 138.941 7.95216 138.941 8.05427C138.941 8.28402 139.171 8.30955 139.503 8.30955C139.835 8.30955 139.988 8.20743 140.065 8.13085L141.264 6.9821C141.698 6.54812 142.286 6.29284 143.077 6.29284H146.013V22.0691C146.013 22.2988 145.936 22.3754 145.783 22.3754H144.43C144.2 22.3754 144.2 22.6052 144.2 22.8094C144.2 23.0136 144.2 23.2689 144.43 23.2944H150.506C150.735 23.2689 150.735 23.0136 150.735 22.8094C150.735 22.6052 150.735 22.3754 150.506 22.3754H149.153C148.999 22.3754 148.923 22.2988 148.923 22.0691V6.29284H151.858C152.65 6.29284 153.237 6.54812 153.671 6.9821L154.871 8.13085C154.947 8.20743 155.101 8.30955 155.432 8.30955C155.764 8.30955 155.994 8.28402 155.994 8.05427C155.994 7.95216 155.943 7.82452 155.917 7.77346L154.615 5.16962H140.32L139.018 7.77346Z" fill="#323232"/>
<path d="M172.158 14.2065C172.158 18.6739 169.835 22.2733 165.981 22.2733C162.1 22.2733 159.854 18.6739 159.854 14.2065C159.854 9.73911 162.1 6.11415 165.981 6.11415C169.835 6.11415 172.158 9.73911 172.158 14.2065ZM175.375 14.232C175.375 9.07538 171.214 4.86328 165.981 4.86328C160.798 4.86328 156.637 9.07538 156.637 14.232C156.637 19.4397 160.798 23.6007 165.981 23.6007C171.214 23.6007 175.375 19.4397 175.375 14.232Z" fill="#323232"/>
<path fill-rule="evenodd" clip-rule="evenodd" d="M14.7344 28.7189C22.6649 28.7189 29.0939 22.2899 29.0939 14.3594C29.0939 6.42894 22.6649 0 14.7344 0C6.80394 0 0.375 6.42894 0.375 14.3594C0.375 22.2899 6.80394 28.7189 14.7344 28.7189ZM10.0853 7.97754H15.8328L11.5483 20.7415H5.80078L10.0853 7.97754ZM17.9212 7.97754H23.6687L19.3842 20.7415H13.6367L17.9212 7.97754Z" fill="#E96A41"/>
</svg>
