<svg width="256" height="25" viewBox="0 0 256 25" fill="none" xmlns="http://www.w3.org/2000/svg">
<path d="M46.209 19.6719C46.209 19.4962 46.209 19.2765 46.0113 19.2765H44.847C44.7152 19.2765 44.6493 19.2106 44.6493 18.9909V5.50264C44.6493 5.28296 44.7152 5.21706 44.847 5.21706H46.0113C46.209 5.21706 46.209 5.01935 46.209 4.84361C46.209 4.66786 46.209 4.44819 46.0113 4.44819H30.6997C30.502 4.44819 30.502 4.66786 30.502 4.84361C30.502 5.01935 30.502 5.21706 30.6997 5.21706H31.864C31.9958 5.21706 32.0617 5.28296 32.0617 5.50264V18.9909C32.0617 19.2106 31.9958 19.2765 31.864 19.2765H30.6997C30.502 19.2765 30.502 19.4962 30.502 19.6719C30.502 19.8477 30.502 20.0454 30.6997 20.0454H35.928C36.1257 20.0454 36.1257 19.8477 36.1257 19.6719C36.1257 19.4962 36.1257 19.2765 35.928 19.2765H34.7637C34.6319 19.2765 34.566 19.2106 34.566 18.9909V5.43674H42.1449V18.9909C42.1449 19.2106 42.079 19.2765 41.9472 19.2765H40.7829C40.5852 19.2765 40.5852 19.4962 40.5852 19.6719C40.5852 19.8477 40.5852 20.0454 40.7829 20.0454H46.0113C46.209 20.0454 46.209 19.8477 46.209 19.6719Z" fill="#323232"/>
<path d="M55.3828 9.32505C55.3828 10.5553 54.8556 13.2353 52.3073 13.2353H51.4066V5.41477H52.3073C54.8556 5.41477 55.3828 8.09485 55.3828 9.32505ZM58.1507 9.32505C58.1507 5.83216 55.7123 4.44819 52.527 4.44819H47.5403C47.3426 4.44819 47.3426 4.66786 47.3426 4.84361C47.3426 5.01935 47.3426 5.21706 47.5403 5.21706H48.7046C48.8364 5.21706 48.9023 5.28296 48.9023 5.50264V18.9909C48.9023 19.2106 48.8364 19.2765 48.7046 19.2765H47.5403C47.3426 19.2765 47.3426 19.4962 47.3426 19.6719C47.3426 19.8477 47.3426 20.0454 47.5403 20.0454H52.7686C52.9663 20.0454 52.9663 19.8477 52.9663 19.6719C52.9663 19.4962 52.9663 19.2765 52.7686 19.2765H51.6043C51.4725 19.2765 51.4066 19.2106 51.4066 18.9909V14.2019H52.527C55.7123 14.2019 58.1507 12.8179 58.1507 9.32505Z" fill="#323232"/>
<path d="M73.1919 12.2248C73.1919 16.0692 71.1928 19.1667 67.8756 19.1667C64.5365 19.1667 62.6034 16.0692 62.6034 12.2248C62.6034 8.38043 64.5365 5.261 67.8756 5.261C71.1928 5.261 73.1919 8.38043 73.1919 12.2248ZM75.9598 12.2468C75.9598 7.80927 72.3791 4.18457 67.8756 4.18457C63.4162 4.18457 59.8354 7.80927 59.8354 12.2468C59.8354 16.7282 63.4162 20.309 67.8756 20.309C72.3791 20.309 75.9598 16.7282 75.9598 12.2468Z" fill="#323232"/>
<path d="M101.742 18.7712C101.742 18.5296 101.566 18.4417 101.368 18.4417C101.148 18.4417 100.467 18.8152 100.028 18.8152C98.0289 18.8152 97.0184 17.2335 96.0738 15.3442C95.0852 13.3671 93.8331 10.753 90.6477 10.2257C91.0212 7.96304 92.6029 5.30493 94.2505 5.30493C94.1846 5.50264 94.1406 5.67839 94.1406 5.83216C94.1406 6.60104 94.6459 6.95252 95.3928 6.95252C96.2715 6.95252 96.6669 6.22758 96.6669 5.67839C96.6669 4.29441 95.4148 4.18457 94.7997 4.18457C91.6363 4.18457 90.0766 7.52369 89.4834 10.072H89.3956V5.50264C89.3956 5.34887 89.4395 5.21706 89.6372 5.21706H90.7576C90.9553 5.21706 90.9553 5.01935 90.9553 4.84361C90.9553 4.66786 90.9553 4.44819 90.7576 4.44819H85.5292C85.3315 4.44819 85.3315 4.66786 85.3315 4.84361C85.3315 5.01935 85.3315 5.21706 85.5292 5.21706H86.6935C86.8253 5.21706 86.8912 5.28296 86.8912 5.50264V10.072H86.8034C86.2102 7.52369 84.6505 4.18457 81.4871 4.18457C80.872 4.18457 79.6199 4.29441 79.6199 5.67839C79.6199 6.22758 80.0153 6.95252 80.894 6.95252C81.6409 6.95252 82.1462 6.60104 82.1462 5.83216C82.1462 5.67839 82.1022 5.50264 82.0363 5.30493C83.6839 5.30493 85.2656 7.96304 85.6391 10.2257C82.4537 10.753 81.2016 13.3671 80.213 15.3442C79.2684 17.2335 78.2579 18.8152 76.2588 18.8152C75.8194 18.8152 75.1384 18.4417 74.9187 18.4417C74.721 18.4417 74.5453 18.5296 74.5453 18.7712C74.5453 19.4962 76.2148 20.331 77.445 20.331C80.4546 20.331 81.3114 19.1447 82.6734 16.5525C83.9036 14.2019 84.8263 11.7195 86.8912 11.7195V18.9909C86.8912 19.2106 86.8253 19.2765 86.6935 19.2765H85.5292C85.3315 19.2765 85.3315 19.4962 85.3315 19.6719C85.3315 19.8477 85.3315 20.0454 85.5292 20.0454H90.7576C90.9553 20.0454 90.9553 19.8477 90.9553 19.6719C90.9553 19.4962 90.9553 19.2765 90.7576 19.2765H89.5933C89.4615 19.2765 89.3956 19.2106 89.3956 18.9909V11.7195C91.4605 11.7195 92.3832 14.2019 93.6134 16.5525C94.9754 19.1447 95.8321 20.331 98.8417 20.331C100.072 20.331 101.742 19.4962 101.742 18.7712Z" fill="#323232"/>
<path d="M118.569 19.6719C118.569 19.4962 118.569 19.2765 118.371 19.2765H117.207C117.075 19.2765 117.009 19.2106 117.009 18.9909V5.50264C117.009 5.28296 117.075 5.21706 117.207 5.21706H118.371C118.569 5.21706 118.569 5.01935 118.569 4.84361C118.569 4.66786 118.569 4.44819 118.371 4.44819H113.143C112.945 4.44819 112.945 4.66786 112.945 4.84361C112.945 5.01935 112.945 5.21706 113.143 5.21706H114.307C114.439 5.21706 114.505 5.28296 114.505 5.50264V5.942L106.047 16.7063V5.50264C106.047 5.28296 106.113 5.21706 106.245 5.21706H107.387C107.585 5.21706 107.585 5.01935 107.585 4.84361C107.585 4.66786 107.585 4.44819 107.387 4.44819H102.181C101.983 4.44819 101.983 4.66786 101.983 4.84361C101.983 5.01935 101.983 5.21706 102.181 5.21706H103.345C103.477 5.21706 103.543 5.28296 103.543 5.50264V18.9909C103.543 19.2106 103.477 19.2765 103.345 19.2765H102.181C101.983 19.2765 101.983 19.4962 101.983 19.6719C101.983 19.8477 101.983 20.0454 102.181 20.0454H107.409C107.607 20.0454 107.607 19.8477 107.607 19.6719C107.607 19.4962 107.607 19.2765 107.409 19.2765H106.245C106.113 19.2765 106.047 19.2106 106.047 18.9909V18.5955L114.505 7.83124V18.9909C114.505 19.2106 114.439 19.2765 114.307 19.2765H113.143C112.945 19.2765 112.945 19.4962 112.945 19.6719C112.945 19.8477 112.945 20.0454 113.143 20.0454H118.371C118.569 20.0454 118.569 19.8477 118.569 19.6719Z" fill="#323232"/>
<path d="M119.308 6.68891C119.286 6.73284 119.242 6.84268 119.242 6.93055C119.242 7.12827 119.44 7.15023 119.725 7.15023C120.011 7.15023 120.143 7.06236 120.209 6.99646L121.241 6.0079C121.615 5.63445 122.12 5.41477 122.801 5.41477H125.327V18.9909C125.327 19.1886 125.261 19.2545 125.13 19.2545H123.965C123.768 19.2545 123.768 19.4522 123.768 19.628C123.768 19.8037 123.768 20.0234 123.965 20.0454H129.194C129.391 20.0234 129.391 19.8037 129.391 19.628C129.391 19.4522 129.391 19.2545 129.194 19.2545H128.029C127.898 19.2545 127.832 19.1886 127.832 18.9909V5.41477H130.358C131.039 5.41477 131.544 5.63445 131.918 6.0079L132.95 6.99646C133.016 7.06236 133.148 7.15023 133.433 7.15023C133.719 7.15023 133.917 7.12827 133.917 6.93055C133.917 6.84268 133.873 6.73284 133.851 6.68891L132.73 4.44819H120.428L119.308 6.68891Z" fill="#323232"/>
<path d="M147.827 12.2248C147.827 16.0692 145.828 19.1667 142.511 19.1667C139.171 19.1667 137.238 16.0692 137.238 12.2248C137.238 8.38043 139.171 5.261 142.511 5.261C145.828 5.261 147.827 8.38043 147.827 12.2248ZM150.595 12.2468C150.595 7.80927 147.014 4.18457 142.511 4.18457C138.051 4.18457 134.47 7.80927 134.47 12.2468C134.47 16.7282 138.051 20.309 142.511 20.309C147.014 20.309 150.595 16.7282 150.595 12.2468Z" fill="#323232"/>
<path fill-rule="evenodd" clip-rule="evenodd" d="M12.3569 24.7138C19.1815 24.7138 24.7138 19.1815 24.7138 12.3569C24.7138 5.53238 19.1815 0 12.3569 0C5.53238 0 0 5.53238 0 12.3569C0 19.1815 5.53238 24.7138 12.3569 24.7138ZM8.35497 6.86475H13.301L9.61395 17.8487H4.66797L8.35497 6.86475ZM15.0991 6.86475H20.0451L16.3581 17.8487H11.4121L15.0991 6.86475Z" fill="#E96A41"/>
<g clip-path="url(#clip0_1007_1843)">
<path fill-rule="evenodd" clip-rule="evenodd" d="M200.725 2.87514H199.084V3.8453H200.679V4.44588H199.084V5.83183H200.725V6.43241H198.469V2.25146H200.725V2.87514Z" fill="#9E9E9E"/>
<path fill-rule="evenodd" clip-rule="evenodd" d="M202.412 5.83183H202.799C203.483 5.83183 203.62 5.48534 203.62 5.20815C203.62 4.90787 203.483 4.58448 202.822 4.58448H202.412V5.83183ZM202.412 4.0532H202.617C202.754 4.0532 203.278 4.0532 203.278 3.42952C203.278 2.92134 202.868 2.87514 202.617 2.87514H202.412V4.0532ZM202.412 2.25146C202.936 2.25146 203.164 2.32076 203.392 2.48246C203.574 2.59795 203.87 2.87514 203.87 3.42952C203.87 3.63741 203.825 3.9377 203.529 4.19179C203.984 4.33039 204.235 4.72307 204.235 5.16196C204.235 5.34675 204.212 5.80873 203.825 6.13212C203.483 6.40931 203.141 6.43241 202.731 6.43241H201.797V2.25146H202.412Z" fill="#9E9E9E"/>
<path fill-rule="evenodd" clip-rule="evenodd" d="M205.648 4.14559H205.945C206.469 4.14559 206.742 3.8915 206.742 3.49882C206.742 3.26783 206.651 2.85204 205.922 2.85204H205.648V4.14559ZM205.922 2.25146C206.195 2.25146 206.537 2.29766 206.833 2.48246C207.175 2.71345 207.335 3.12923 207.335 3.49882C207.335 3.72981 207.289 4.12249 206.947 4.39968C206.605 4.69997 206.241 4.72307 205.945 4.72307H205.648V6.43241H205.033V2.25146H205.922Z" fill="#9E9E9E"/>
<path fill-rule="evenodd" clip-rule="evenodd" d="M211.55 4.35296C211.55 3.42899 210.935 2.75912 210.046 2.75912C209.158 2.75912 208.542 3.42899 208.542 4.35296C208.542 5.27692 209.158 5.9237 210.046 5.9237C210.935 5.9237 211.55 5.27692 211.55 4.35296ZM212.188 4.35296C212.188 5.57721 211.277 6.50118 210.046 6.50118C208.816 6.50118 207.904 5.57721 207.904 4.35296C207.904 3.12871 208.816 2.18164 210.046 2.18164C211.277 2.18164 212.188 3.12871 212.188 4.35296Z" fill="#9E9E9E"/>
<path fill-rule="evenodd" clip-rule="evenodd" d="M215.993 2.25146V6.43241H215.355V2.87514H213.601V6.43241H212.963V2.25146H215.993Z" fill="#9E9E9E"/>
<path fill-rule="evenodd" clip-rule="evenodd" d="M219.48 2.87514H217.84V3.8453H219.435V4.44588H217.84V5.83183H219.48V6.43241H217.225V2.25146H219.48V2.87514Z" fill="#9E9E9E"/>
<path fill-rule="evenodd" clip-rule="evenodd" d="M223.308 3.6139L220.551 6.61679V2.25105H221.166V5.06914L223.946 2.08936V6.43199H223.308V3.6139Z" fill="#9E9E9E"/>
<path fill-rule="evenodd" clip-rule="evenodd" d="M228.207 3.2211C227.751 2.80532 227.341 2.75912 227.113 2.75912C226.202 2.75912 225.609 3.42899 225.609 4.35296C225.609 5.23073 226.247 5.9237 227.113 5.9237C227.615 5.9237 227.979 5.66961 228.207 5.43862V6.20089C227.82 6.45498 227.364 6.50118 227.09 6.50118C226.339 6.50118 225.883 6.15469 225.632 5.9468C225.154 5.48482 224.994 4.95354 224.994 4.35296C224.994 3.59069 225.29 3.05941 225.632 2.73602C226.065 2.32024 226.544 2.18164 227.113 2.18164C227.501 2.18164 227.865 2.25094 228.207 2.48193V3.2211Z" fill="#9E9E9E"/>
<path fill-rule="evenodd" clip-rule="evenodd" d="M229.872 3.9146L231.467 2.25146H232.288L230.442 4.14559L232.311 6.43241H231.467L229.986 4.58448L229.872 4.69997V6.43241H229.234V2.25146H229.872V3.9146Z" fill="#9E9E9E"/>
<path fill-rule="evenodd" clip-rule="evenodd" d="M235.865 3.6139L233.107 6.61679V2.25105H233.723V5.06914L236.503 2.08936V6.43199H235.865V3.6139Z" fill="#9E9E9E"/>
<path fill-rule="evenodd" clip-rule="evenodd" d="M240.376 3.6139L237.619 6.61679V2.25105H238.234V5.06914L240.992 2.08936V6.43199H240.376V3.6139Z" fill="#9E9E9E"/>
<path fill-rule="evenodd" clip-rule="evenodd" d="M198.766 10.9595L199.837 13.1077L200.794 10.9595H201.432L199.586 15.1173H198.925L199.495 13.87L198.014 10.9595H198.766Z" fill="#9E9E9E"/>
<path fill-rule="evenodd" clip-rule="evenodd" d="M202.593 12.5764H204.37V10.9595H204.986V15.1173H204.37V13.177H202.593V15.1173H201.955V10.9595H202.593V12.5764Z" fill="#9E9E9E"/>
<path fill-rule="evenodd" clip-rule="evenodd" d="M208.997 12.299L206.217 15.3018V10.9592H206.855V13.7773L209.612 10.7744V15.1171H208.997V12.299Z" fill="#9E9E9E"/>
<path fill-rule="evenodd" clip-rule="evenodd" d="M211.344 14.5167H211.731C212.437 14.5167 212.551 14.1472 212.551 13.8931C212.551 13.5928 212.415 13.2694 211.754 13.2694H211.344V14.5167ZM211.344 12.7381H211.549C211.708 12.7381 212.21 12.7381 212.21 12.1375C212.21 11.6062 211.822 11.537 211.572 11.537H211.344V12.7381ZM211.344 10.9595C211.868 10.9595 212.118 11.0057 212.346 11.1674C212.529 11.306 212.802 11.5601 212.802 12.1144C212.802 12.3223 212.756 12.6457 212.46 12.8767C212.939 13.0153 213.167 13.408 213.167 13.8238C213.167 14.0317 213.167 14.4936 212.756 14.817C212.415 15.0942 212.096 15.1173 211.663 15.1173H210.729V10.9595H211.344Z" fill="#9E9E9E"/>
<path fill-rule="evenodd" clip-rule="evenodd" d="M216.357 11.537H214.716V12.5302H216.311V13.1308H214.716V14.5167H216.357V15.1173H214.078V10.9595H216.357V11.537Z" fill="#9E9E9E"/>
<path fill-rule="evenodd" clip-rule="evenodd" d="M218.044 12.8305H218.318C218.865 12.8305 219.115 12.5533 219.115 12.1837C219.115 11.9527 219.024 11.537 218.318 11.537H218.044V12.8305ZM218.318 10.9595C218.568 10.9595 218.933 10.9595 219.229 11.1674C219.571 11.3984 219.73 11.8141 219.73 12.1837C219.73 12.4378 219.662 12.8074 219.32 13.1077C219.001 13.3849 218.637 13.408 218.318 13.408H218.044V15.1173H217.406V10.9595H218.318Z" fill="#9E9E9E"/>
<path fill-rule="evenodd" clip-rule="evenodd" d="M223.536 11.9297C223.081 11.514 222.671 11.4678 222.42 11.4678C221.531 11.4678 220.939 12.1376 220.939 13.0385C220.939 13.9163 221.554 14.6092 222.42 14.6092C222.921 14.6092 223.309 14.3552 223.536 14.1242V14.8864C223.126 15.1405 222.693 15.1867 222.42 15.1867C221.668 15.1867 221.189 14.8402 220.962 14.6092C220.483 14.1704 220.301 13.6391 220.301 13.0385C220.301 12.2762 220.62 11.745 220.962 11.4216C221.395 11.0058 221.873 10.8672 222.443 10.8672C222.807 10.8672 223.172 10.9365 223.536 11.1675V11.9297Z" fill="#9E9E9E"/>
<path fill-rule="evenodd" clip-rule="evenodd" d="M227.09 12.299L224.311 15.3018V10.9592H224.949V13.7773L227.706 10.7744V15.1171H227.09V12.299Z" fill="#9E9E9E"/>
<path fill-rule="evenodd" clip-rule="evenodd" d="M230.077 11.537V15.1173H229.462V11.537H228.527V10.9595H231.034V11.537H230.077Z" fill="#9E9E9E"/>
<path fill-rule="evenodd" clip-rule="evenodd" d="M234.086 11.537H232.468V12.5302H234.04V13.1308H232.468V14.5167H234.086V15.1173H231.83V10.9595H234.086V11.537Z" fill="#9E9E9E"/>
<path fill-rule="evenodd" clip-rule="evenodd" d="M236.297 11.537V15.1173H235.659V11.537H234.725V10.9595H237.231V11.537H236.297Z" fill="#9E9E9E"/>
<path fill-rule="evenodd" clip-rule="evenodd" d="M199.084 23.2018H199.471C200.155 23.2018 200.292 22.8322 200.292 22.5781C200.292 22.2778 200.132 21.9544 199.494 21.9544H199.084V23.2018ZM199.084 21.4232H199.289C199.426 21.4232 199.95 21.4232 199.95 20.8226C199.95 20.2913 199.54 20.222 199.312 20.222H199.084V21.4232ZM199.084 19.6445C199.608 19.6445 199.836 19.6907 200.064 19.8524C200.246 19.991 200.542 20.2451 200.542 20.7995C200.542 21.0074 200.497 21.3077 200.201 21.5618C200.656 21.7004 200.907 22.093 200.907 22.5088C200.907 22.7167 200.884 23.1787 200.497 23.5021C200.155 23.7793 199.813 23.8024 199.403 23.8024H198.469V19.6445H199.084Z" fill="#9E9E9E"/>
<path fill-rule="evenodd" clip-rule="evenodd" d="M205.806 20.6148C205.35 20.199 204.917 20.1528 204.689 20.1528C203.801 20.1528 203.186 20.8227 203.186 21.7236C203.186 22.6244 203.824 23.2943 204.689 23.2943C205.191 23.2943 205.578 23.0402 205.806 22.8092V23.5715C205.396 23.8025 204.963 23.8718 204.689 23.8718C203.937 23.8718 203.459 23.5484 203.231 23.2943C202.753 22.8554 202.57 22.3241 202.57 21.7236C202.57 20.9613 202.889 20.43 203.231 20.1066C203.641 19.6908 204.143 19.5522 204.712 19.5522C205.1 19.5522 205.441 19.6215 205.806 19.8525V20.6148Z" fill="#9E9E9E"/>
<path fill-rule="evenodd" clip-rule="evenodd" d="M208.747 22.1856L208.131 20.7766L207.493 22.1856H208.747ZM208.997 22.7862H207.243L206.787 23.8026H206.104L208.154 19.3906L210.114 23.8026H209.43L208.997 22.7862Z" fill="#9E9E9E"/>
<path fill-rule="evenodd" clip-rule="evenodd" d="M211.253 21.2615H213.008V19.6445H213.646V23.8024H213.008V21.862H211.253V23.8024H210.615V19.6445H211.253V21.2615Z" fill="#9E9E9E"/>
<path fill-rule="evenodd" clip-rule="evenodd" d="M215.492 21.2846L217.087 19.6445H217.908L216.062 21.5156L217.93 23.8024H217.087L215.629 21.9544L215.492 22.0699V23.8024H214.877V19.6445H215.492V21.2846Z" fill="#9E9E9E"/>
<path fill-rule="evenodd" clip-rule="evenodd" d="M219.867 20.222V23.8024H219.229V20.222H218.295V19.6445H220.801V20.222H219.867Z" fill="#9E9E9E"/>
<path fill-rule="evenodd" clip-rule="evenodd" d="M226.202 19.6445V23.8024H225.564V20.222H223.787V23.8024H223.172V19.6445H226.202Z" fill="#9E9E9E"/>
<path fill-rule="evenodd" clip-rule="evenodd" d="M229.689 20.222H228.048V21.2384H229.62V21.8158H228.048V23.2018H229.689V23.8024H227.41V19.6445H229.689V20.222Z" fill="#9E9E9E"/>
<path fill-rule="evenodd" clip-rule="evenodd" d="M231.877 20.222V23.8024H231.262V20.222H230.305V19.6445H232.834V20.222H231.877Z" fill="#9E9E9E"/>
<path fill-rule="evenodd" clip-rule="evenodd" d="M235.887 20.222H234.246V21.2384H235.841V21.8158H234.246V23.2018H235.887V23.8024H233.631V19.6445H235.887V20.222Z" fill="#9E9E9E"/>
<path fill-rule="evenodd" clip-rule="evenodd" d="M237.574 21.5156H237.87C238.417 21.5156 238.668 21.2384 238.668 20.8688C238.668 20.6378 238.577 20.222 237.87 20.222H237.574V21.5156ZM237.87 19.6445C238.121 19.6445 238.463 19.6445 238.759 19.8524C239.101 20.0834 239.283 20.4761 239.283 20.8688C239.283 21.1229 239.215 21.4925 238.873 21.7928C238.554 22.0699 238.167 22.1161 237.87 22.1161H237.574V23.8024H236.959V19.6445H237.87Z" fill="#9E9E9E"/>
<path fill-rule="evenodd" clip-rule="evenodd" d="M240.786 23.2018H241.174C241.333 23.2018 241.994 23.2018 241.994 22.5781C241.994 22.2547 241.857 21.9082 241.174 21.9082H240.786V23.2018ZM240.148 19.6445H242.199V20.222H240.786V21.3077H241.197C241.493 21.3077 241.903 21.3539 242.222 21.6542C242.45 21.862 242.609 22.1854 242.609 22.555C242.609 22.9477 242.45 23.3404 242.108 23.5714C241.812 23.7793 241.447 23.8024 241.197 23.8024H240.148V19.6445Z" fill="#9E9E9E"/>
<path fill-rule="evenodd" clip-rule="evenodd" d="M243.703 19.6445L244.774 21.7928L245.731 19.6445H246.369L244.523 23.8024H243.863L244.432 22.555L242.951 19.6445H243.703Z" fill="#9E9E9E"/>
<path fill-rule="evenodd" clip-rule="evenodd" d="M247.533 21.5156H247.806C248.376 21.5156 248.626 21.2384 248.626 20.8688C248.626 20.6378 248.512 20.222 247.806 20.222H247.533V21.5156ZM247.806 19.6445C248.057 19.6445 248.421 19.6445 248.717 19.8524C249.059 20.0834 249.219 20.4761 249.219 20.8688C249.219 21.1229 249.173 21.4925 248.809 21.7928C248.49 22.0699 248.125 22.1161 247.806 22.1161H247.533V23.8024H246.895V19.6445H247.806Z" fill="#9E9E9E"/>
<path fill-rule="evenodd" clip-rule="evenodd" d="M250.107 19.6445H252.158V20.222H250.745V23.8024H250.107V19.6445Z" fill="#9E9E9E"/>
<path fill-rule="evenodd" clip-rule="evenodd" d="M255.258 20.222H253.617V21.2384H255.212V21.8158H253.617V23.2018H255.258V23.8024H253.002V19.6445H255.258V20.222Z" fill="#9E9E9E"/>
<path fill-rule="evenodd" clip-rule="evenodd" d="M191.747 1.55811V24.357H192.043V1.55811H191.747ZM185.025 20.4994V24.357H185.321V20.3839C185.252 20.407 185.184 20.4301 185.138 20.4763L185.025 20.4994ZM185.025 1.55811V16.7342C185.138 16.6418 185.23 16.5725 185.321 16.4801V1.55811H185.025ZM177.322 20.176V24.357H177.618V20.3146C177.527 20.2684 177.413 20.2222 177.322 20.176ZM177.322 10.2896V15.8103C177.413 15.9489 177.527 16.0875 177.618 16.203V9.98929C177.527 10.0817 177.413 10.1741 177.322 10.2896ZM177.322 1.55811V6.40892C177.413 6.38582 177.527 6.36273 177.618 6.33963V1.55811H177.322ZM170.6 1.55811V24.357H170.896V1.55811H170.6Z" fill="#9E9E9E"/>
<path fill-rule="evenodd" clip-rule="evenodd" d="M187.417 7.81751C187.417 7.93301 187.599 8.76458 187.645 9.66544C187.713 10.7049 187.713 11.9754 187.508 13.0148C187.303 14.3084 186.802 15.6712 185.913 16.6183C184.819 17.7963 183.11 18.3045 181.56 18.3045C180.056 18.3045 178.484 17.8194 177.39 16.7107C176.41 15.7174 176.046 14.3777 176.046 12.9686C176.046 12.1832 176.205 11.421 176.456 10.7742C176.957 9.43445 178.142 8.94937 179.509 8.99557C180.147 9.01867 181.378 9.13416 181.857 9.64234C182.495 10.3122 182.358 11.6982 182.107 12.4373C182.062 12.5528 181.971 12.8993 181.538 12.9455C181.31 12.9686 180.763 12.9224 180.512 12.8531C180.375 12.7838 180.307 12.599 180.307 12.4373C180.284 12.0909 180.489 11.7444 180.489 11.421C180.489 11.2824 180.398 11.1669 180.239 11.1207C179.897 11.0052 179.008 10.7511 178.575 11.3286C178.416 11.5596 178.233 12.3449 178.302 12.8993C178.37 13.5923 178.78 14.1005 179.168 14.3546C179.601 14.6318 180.307 14.8166 181.013 14.8627C181.811 14.8858 182.677 14.7473 183.178 14.3546C184.135 13.6154 184.318 12.7376 184.432 11.5365C184.66 9.61925 183.816 7.84061 181.879 7.12454C178.985 6.03888 175.499 6.70875 174.291 9.91953C173.243 12.6914 173.63 16.1563 175.704 18.3276C177.983 20.753 181.971 21.1688 184.933 19.9908C187.121 19.1361 188.488 17.5653 189.263 15.3478C189.719 14.1236 189.878 12.7838 189.901 11.4672C189.924 10.7973 189.878 10.1967 189.855 9.66544C189.81 9.15726 189.719 8.55668 189.65 8.164C189.582 7.93301 189.399 7.88681 189.308 7.86371L187.941 7.56342C187.759 7.54032 187.485 7.56342 187.417 7.81751Z" fill="#FBC90B"/>
<path fill-rule="evenodd" clip-rule="evenodd" d="M222.123 1.51189V2.36656L223.194 1.2116V0.356934L222.123 1.51189Z" fill="#9E9E9E"/>
<path fill-rule="evenodd" clip-rule="evenodd" d="M239.191 1.51189V2.36656L240.262 1.2116V0.356934L239.191 1.51189Z" fill="#9E9E9E"/>
<path fill-rule="evenodd" clip-rule="evenodd" d="M221.143 21.8849V22.7396L222.214 21.6077V20.73L221.143 21.8849Z" fill="#9E9E9E"/>
</g>
<defs>
<clipPath id="clip0_1007_1843">
<rect width="85" height="24" fill="white" transform="translate(170.596 0.356934)"/>
</clipPath>
</defs>
</svg>
