<svg width="27" height="26" viewBox="0 0 27 26" fill="none" xmlns="http://www.w3.org/2000/svg">
<path d="M26.1064 13C26.1064 16.4478 24.7368 19.7544 22.2988 22.1924C19.8609 24.6304 16.5543 26 13.1064 26C9.65863 26 6.35203 24.6304 3.91406 22.1924C1.47608 19.7544 0.106445 16.4478 0.106445 13C0.106445 9.55219 1.47608 6.24558 3.91406 3.80761C6.35203 1.36964 9.65863 0 13.1064 0C16.5543 0 19.8609 1.36964 22.2988 3.80761C24.7368 6.24558 26.1064 9.55219 26.1064 13ZM13.5728 9.59725C12.3086 10.1238 9.78007 11.2125 5.99057 12.8635C5.37632 13.1073 5.05295 13.3477 5.0237 13.5817C4.97495 13.9766 5.47057 14.1326 6.14495 14.3455L6.42932 14.4349C7.09232 14.651 7.98607 14.9029 8.44919 14.9126C8.87169 14.9224 9.34132 14.7501 9.8597 14.3926C13.4006 12.0023 15.2287 10.7949 15.3424 10.7689C15.4237 10.7494 15.5374 10.7266 15.6122 10.7949C15.6886 10.8615 15.6804 10.9899 15.6723 11.024C15.6236 11.2336 13.6784 13.0406 12.6726 13.9766C12.3589 14.2691 12.1363 14.4755 12.0908 14.5226C11.9906 14.625 11.8888 14.7258 11.7853 14.8249C11.1678 15.4196 10.7063 15.8649 11.8097 16.5929C12.3411 16.9439 12.7668 17.2315 13.1909 17.5208C13.6524 17.836 14.1139 18.1496 14.7119 18.5429C14.8631 18.6404 15.0093 18.746 15.1507 18.8467C15.6886 19.2302 16.1744 19.5748 16.7708 19.5195C17.1186 19.487 17.4777 19.162 17.6597 18.187C18.0903 15.8844 18.9369 10.8973 19.1319 8.84163C19.1438 8.67074 19.1368 8.49907 19.1108 8.32975C19.0955 8.19312 19.0294 8.06725 18.9256 7.97712C18.7777 7.87506 18.6014 7.82218 18.4218 7.826C17.9343 7.83413 17.1819 8.09575 13.5728 9.59725Z" fill="#323232" fill-opacity="0.5"/>
</svg>
