<svg width="27" height="26" viewBox="0 0 27 26" fill="none" xmlns="http://www.w3.org/2000/svg">
<path d="M17.0969 0H9.11598C1.83295 0 0.106445 1.72651 0.106445 9.00953V16.9905C0.106445 24.2735 1.83295 26 9.11598 26H17.0969C24.3799 26 26.1064 24.2735 26.1064 16.9905V9.00953C26.1064 1.72651 24.3629 0 17.0969 0ZM21.0959 18.5472H19.2085C18.4936 18.5472 18.2734 17.9801 16.9872 16.6769C15.8701 15.5938 15.3753 15.45 15.0999 15.45C14.7107 15.45 14.6002 15.5597 14.6002 16.0935V17.7989C14.6002 18.2563 14.4564 18.5309 13.2458 18.5309C11.2438 18.5309 9.02254 17.3203 7.46503 15.0649C5.11616 11.7598 4.4735 9.28415 4.4735 8.77229C4.4735 8.49686 4.58318 8.2393 5.1121 8.2393H7.00354C7.48209 8.2393 7.66408 8.45949 7.85014 8.97134C8.7853 11.6712 10.3428 14.0363 10.9855 14.0363C11.2227 14.0363 11.3324 13.9266 11.3324 13.3213V10.5329C11.2601 9.24677 10.5833 9.13628 10.5833 8.67967C10.5833 8.45949 10.7653 8.2393 11.057 8.2393H14.0314C14.4336 8.2393 14.5815 8.45949 14.5815 8.93316V12.6949C14.5815 13.1012 14.7635 13.245 14.8732 13.245C15.1104 13.245 15.3135 13.1012 15.7531 12.6608C17.1115 11.1374 18.0849 8.78854 18.0849 8.78854C18.2116 8.51311 18.4318 8.25556 18.9104 8.25556H20.8018C21.3689 8.25556 21.4957 8.54723 21.3689 8.95347C21.1317 10.0536 18.8169 13.3205 18.8169 13.3205C18.6179 13.6504 18.5415 13.7942 18.8169 14.1622C19.02 14.4377 19.6806 15.0088 20.1201 15.5207C20.9285 16.4388 21.5501 17.209 21.7158 17.742C21.9019 18.2709 21.6273 18.5464 21.0935 18.5464L21.0959 18.5472Z" fill="#323232" fill-opacity="0.5"/>
</svg>
